<?xml version="1.0" encoding="utf-8"?>
<!-- Generator: Adobe Illustrator 16.0.0, SVG Export Plug-In . SVG Version: 6.00 Build 0)  -->
<!DOCTYPE svg PUBLIC "-//W3C//DTD SVG 1.1//EN" "http://www.w3.org/Graphics/SVG/1.1/DTD/svg11.dtd">
<svg version="1.1" id="Layer_1" xmlns="http://www.w3.org/2000/svg" xmlns:xlink="http://www.w3.org/1999/xlink" x="0px" y="0px"
	 width="200px" height="67.5px" viewBox="0 0 200 67.5" enable-background="new 0 0 200 67.5" xml:space="preserve">
<path fill="#FFFFFF" d="M104.469,31.65c1.156,0.399,4.213,1.323,4.213,1.323l-0.892-9.076c0,0-0.55-1.418,1.247-1.863
	c1.798-0.444,9.287-2.103,16.421-0.098c6.099,1.714,16.467,8.786,16.467,8.786s-8.842-10.062-16.264-14.127
	c-9.165-5.017-18.948-4.971-18.948-4.971s-0.405-3.874-2.1-3.809l-0.279,0.01c-1.693-0.065-2.1,3.806-2.1,3.806
	s-9.783-0.043-18.948,4.974c-7.424,4.062-16.264,14.127-16.264,14.127s10.369-7.072,16.467-8.785
	c7.135-2.006,14.622-0.348,16.42,0.096c1.797,0.445,1.25,1.865,1.25,1.865l-0.896,9.075c0,0,3.058-0.924,4.214-1.323L104.469,31.65z
	"/>
<g>
	<path fill="#FFFFFF" d="M37.903,27.22c0,0.125-0.031,0.292-0.094,0.502c-0.062,0.212-0.13,0.316-0.205,0.316
		c-1.39,0.149-2.364,0.454-2.922,0.912c-0.559,0.46-0.851,1.198-0.875,2.215l-0.41,21.255c0,0.074-0.081,0.154-0.242,0.241
		c-0.162,0.088-0.428,0.132-0.8,0.132c-0.274,0-0.509-0.019-0.707-0.057c-0.199-0.036-0.348-0.118-0.447-0.242L13.112,34.208
		l-0.224,13.296c-0.05,0.969,0.21,1.696,0.781,2.18c0.57,0.485,1.576,0.802,3.016,0.95c0.074,0,0.143,0.093,0.204,0.277
		c0.063,0.188,0.094,0.368,0.094,0.54c0,0.149-0.031,0.323-0.094,0.521c-0.062,0.198-0.13,0.298-0.204,0.298
		c-0.943,0-1.812-0.03-2.606-0.092c-0.794-0.062-1.625-0.093-2.494-0.093c-0.893,0-1.719,0.03-2.476,0.093
		c-0.757,0.062-1.558,0.092-2.4,0.092c-0.074,0-0.143-0.1-0.206-0.298c-0.062-0.198-0.092-0.372-0.092-0.521
		c0-0.172,0.037-0.347,0.112-0.52c0.074-0.175,0.149-0.272,0.224-0.298c1.415-0.148,2.394-0.46,2.939-0.93
		c0.546-0.474,0.82-1.206,0.82-2.197l0.595-15.151c0.022-1.34-0.251-2.351-0.821-3.034c-0.569-0.682-1.648-1.11-3.237-1.285
		c-0.073-0.024-0.136-0.136-0.185-0.334c-0.05-0.199-0.074-0.36-0.074-0.484c0-0.174,0.031-0.354,0.092-0.54
		c0.062-0.186,0.13-0.279,0.205-0.279c0.596,0,1.303,0.031,2.123,0.093c0.818,0.063,1.484,0.094,1.997,0.094
		c0.594,0,1.155-0.031,1.683-0.094c0.528-0.062,1.209-0.093,2.045-0.093l16.647,16.825V31.166c0-1.018-0.298-1.75-0.894-2.196
		c-0.595-0.447-1.613-0.757-3.052-0.932c-0.075-0.024-0.143-0.124-0.206-0.297c-0.062-0.173-0.093-0.348-0.093-0.521
		c0-0.149,0.031-0.323,0.093-0.522c0.063-0.198,0.131-0.297,0.206-0.297c0.967,0,1.792,0.031,2.475,0.093
		c0.682,0.063,1.458,0.094,2.327,0.094c0.893,0,1.774-0.031,2.643-0.094c0.869-0.062,1.713-0.093,2.531-0.093
		c0.075,0,0.143,0.093,0.205,0.279C37.873,26.867,37.903,27.046,37.903,27.22z"/>
	<path fill="#FFFFFF" d="M51.191,51.452c0,0.149-0.031,0.323-0.093,0.521c-0.062,0.198-0.129,0.298-0.204,0.298
		c-0.77,0-1.732-0.03-2.886-0.092c-1.154-0.062-2.165-0.093-3.034-0.093c-0.844,0-1.774,0.03-2.792,0.093
		c-1.018,0.062-1.898,0.092-2.643,0.092c-0.074,0-0.143-0.1-0.204-0.298c-0.062-0.198-0.093-0.372-0.093-0.521
		c0-0.123,0.031-0.285,0.093-0.483c0.062-0.197,0.13-0.309,0.204-0.334c0.919-0.1,1.57-0.347,1.955-0.745
		c0.385-0.396,0.577-1.189,0.577-2.382V41.91c0-0.994-0.191-1.642-0.577-1.939c-0.384-0.298-1.036-0.496-1.955-0.597
		c-0.074-0.025-0.143-0.131-0.204-0.315c-0.062-0.188-0.093-0.342-0.093-0.466c0-0.126,0.031-0.285,0.093-0.485
		c0.062-0.198,0.13-0.298,0.204-0.298c1.191-0.244,2.531-0.646,4.021-1.2c1.489-0.556,2.643-1.03,3.463-1.424
		c0.074-0.05,0.198-0.112,0.371-0.185c0.173-0.075,0.323-0.112,0.447-0.112c0.298,0,0.515,0.05,0.651,0.149
		c0.136,0.099,0.193,0.211,0.167,0.335c-0.049,0.869-0.112,1.922-0.187,3.164c-0.073,1.241-0.11,2.282-0.11,3.128v5.844
		c0,1.166,0.198,1.96,0.595,2.382c0.397,0.422,1.042,0.671,1.937,0.745c0.075,0,0.143,0.105,0.204,0.316
		C51.161,51.162,51.191,51.329,51.191,51.452z M48.4,28.858c0,0.943-0.335,1.749-1.006,2.419c-0.669,0.669-1.463,1.004-2.382,1.004
		c-0.918,0-1.712-0.335-2.382-1.004c-0.671-0.671-1.005-1.477-1.005-2.419c0-0.919,0.334-1.713,1.005-2.382
		c0.669-0.671,1.463-1.006,2.382-1.006c0.919,0,1.713,0.335,2.382,1.006C48.065,27.146,48.4,27.939,48.4,28.858z"/>
	<path fill="#FFFFFF" d="M62.582,35.41c-0.049,0.868-0.11,1.924-0.185,3.163c-0.074,1.241-0.111,2.285-0.111,3.128v11.168
		c0,2.059-0.826,3.891-2.476,5.491c-1.65,1.599-3.878,2.971-6.682,4.111c-0.1,0.026-0.267-0.128-0.502-0.465
		c-0.237-0.334-0.355-0.602-0.355-0.799c0-0.052,0.013-0.105,0.038-0.167c0.025-0.064,0.062-0.108,0.111-0.131
		c1.316-0.771,2.24-1.614,2.774-2.534c0.533-0.92,0.8-2.087,0.8-3.503V41.944c0-0.969-0.193-1.614-0.578-1.938
		c-0.384-0.321-1.036-0.532-1.954-0.633c-0.073,0-0.143-0.092-0.205-0.28c-0.062-0.185-0.092-0.342-0.092-0.465
		s0.031-0.285,0.092-0.483c0.062-0.197,0.131-0.298,0.205-0.298c1.192-0.272,2.5-0.665,3.928-1.185
		c1.426-0.517,2.612-0.998,3.555-1.441c0.075-0.05,0.198-0.112,0.371-0.185c0.175-0.074,0.323-0.112,0.447-0.112
		c0.298,0,0.515,0.05,0.651,0.149C62.551,35.173,62.607,35.285,62.582,35.41z M62.322,28.858c0,0.943-0.335,1.749-1.006,2.419
		c-0.669,0.669-1.463,1.004-2.382,1.004c-0.919,0-1.711-0.335-2.382-1.004c-0.669-0.671-1.005-1.477-1.005-2.419
		c0-0.919,0.335-1.713,1.005-2.382c0.671-0.671,1.463-1.006,2.382-1.006c0.918,0,1.712,0.335,2.382,1.006
		C61.987,27.146,62.322,27.939,62.322,28.858z"/>
	<path fill="#FFFFFF" d="M85.215,42.296c0,0.175-0.062,0.312-0.185,0.409c-0.125,0.1-0.298,0.148-0.522,0.148H74.234
		c-0.026,0.175-0.038,0.403-0.038,0.688c0,0.286,0,0.553,0,0.802c0,2.085,0.341,3.536,1.024,4.356
		c0.682,0.816,1.667,1.229,2.959,1.229c0.893,0,1.897-0.224,3.014-0.671c1.118-0.447,1.923-1.005,2.421-1.676
		c0.024-0.049,0.099-0.031,0.222,0.057c0.125,0.087,0.236,0.167,0.335,0.241c0.125,0.124,0.23,0.255,0.316,0.391
		c0.087,0.137,0.131,0.268,0.131,0.391c0,0.049-0.006,0.101-0.019,0.149c-0.012,0.049-0.044,0.1-0.093,0.148
		c-0.62,0.895-1.539,1.764-2.754,2.606c-1.217,0.843-2.842,1.264-4.876,1.264c-2.656,0-4.889-0.855-6.7-2.566
		c-1.812-1.712-2.718-3.734-2.718-6.067c0-2.632,0.862-4.809,2.588-6.532c1.724-1.727,4.001-2.588,6.83-2.588
		c2.58,0,4.616,0.695,6.104,2.084C84.471,38.55,85.215,40.261,85.215,42.296z M79.036,39.505c0-0.745-0.167-1.377-0.502-1.898
		c-0.335-0.521-0.837-0.781-1.507-0.781c-0.82,0-1.428,0.396-1.825,1.189s-0.658,1.838-0.781,3.128l3.052-0.075
		c0.546-0.025,0.943-0.131,1.191-0.315C78.911,40.564,79.036,40.15,79.036,39.505z"/>
	<path fill="#FFFFFF" d="M112.016,51.509c0,0.148-0.032,0.323-0.094,0.521s-0.13,0.298-0.204,0.298c-0.77,0-1.656-0.041-2.662-0.12
		c-1.005-0.083-1.941-0.121-2.811-0.121c-0.844,0-1.675,0.038-2.493,0.121c-0.818,0.079-1.602,0.12-2.346,0.12
		c-0.074,0-0.143-0.1-0.205-0.298c-0.062-0.198-0.093-0.373-0.093-0.521c0-0.149,0.031-0.316,0.093-0.501
		c0.062-0.188,0.131-0.293,0.205-0.316c0.496-0.077,0.869-0.318,1.117-0.732c0.248-0.411,0.372-1.216,0.372-2.415v-5.919
		c0-1.241-0.144-2.12-0.429-2.642s-0.862-0.781-1.731-0.781c-0.719,0-1.303,0.242-1.749,0.725c-0.447,0.483-0.895,1.26-1.34,2.326
		v6.291c0,1.1,0.117,1.886,0.354,2.361c0.235,0.473,0.601,0.734,1.099,0.786c0.073,0,0.141,0.093,0.204,0.277
		c0.062,0.188,0.093,0.368,0.093,0.54c0,0.175-0.031,0.354-0.093,0.539c-0.063,0.188-0.131,0.28-0.204,0.28
		c-0.77,0-1.552-0.041-2.346-0.12c-0.794-0.083-1.625-0.121-2.494-0.121s-1.805,0.038-2.81,0.121
		c-1.004,0.079-1.879,0.12-2.625,0.12c-0.074,0-0.143-0.092-0.204-0.28c-0.062-0.185-0.092-0.364-0.092-0.539
		c0-0.172,0.031-0.347,0.092-0.521c0.062-0.173,0.13-0.272,0.204-0.296c1.092-0.151,1.781-0.406,2.066-0.769
		s0.429-1.156,0.429-2.379v-5.856c0-1.044-0.112-1.709-0.335-1.994c-0.224-0.288-0.794-0.481-1.713-0.581
		c-0.074,0-0.143-0.098-0.204-0.296c-0.063-0.2-0.094-0.359-0.094-0.485c0-0.123,0.031-0.277,0.094-0.465
		c0.062-0.186,0.13-0.278,0.204-0.278c0.844-0.223,2.004-0.611,3.481-1.166c1.476-0.555,2.562-1.004,3.257-1.35
		c0.075-0.049,0.198-0.11,0.373-0.184c0.174-0.075,0.323-0.112,0.446-0.112c0.298,0,0.516,0.057,0.652,0.168
		s0.192,0.217,0.168,0.316l-0.149,3.574c0.496-1.216,1.284-2.146,2.363-2.793c1.081-0.645,2.215-0.967,3.407-0.967
		c1.861,0,3.313,0.583,4.355,1.75c1.042,1.167,1.563,2.47,1.563,3.908v6.811c0,1.199,0.149,1.991,0.446,2.379
		c0.298,0.386,0.993,0.643,2.085,0.769c0.074,0,0.143,0.105,0.204,0.316C111.983,51.218,112.016,51.386,112.016,51.509z"/>
	<path fill="#FFFFFF" d="M136.845,51.452c0,0.149-0.031,0.323-0.094,0.521c-0.062,0.198-0.13,0.298-0.204,0.298
		c-0.77,0-1.656-0.03-2.661-0.092c-1.006-0.062-1.942-0.093-2.812-0.093c-0.844,0-1.674,0.03-2.494,0.093
		c-0.818,0.062-1.601,0.092-2.345,0.092c-0.074,0-0.143-0.1-0.204-0.298c-0.062-0.198-0.094-0.372-0.094-0.521
		c0-0.123,0.031-0.285,0.094-0.483c0.062-0.197,0.13-0.309,0.204-0.334c0.496-0.074,0.869-0.316,1.117-0.728
		c0.247-0.408,0.372-1.207,0.372-2.399v-5.883c0-1.241-0.149-2.127-0.447-2.659c-0.298-0.534-0.868-0.802-1.711-0.802
		c-0.721,0-1.303,0.241-1.75,0.728c-0.447,0.482-0.894,1.259-1.341,2.325v6.291c0,1.092,0.118,1.873,0.354,2.346
		c0.235,0.471,0.602,0.732,1.099,0.781c0.074,0,0.143,0.105,0.204,0.316c0.062,0.211,0.094,0.378,0.094,0.501
		c0,0.175-0.031,0.354-0.094,0.542c-0.062,0.186-0.13,0.277-0.204,0.277c-0.77,0-1.551-0.03-2.345-0.092
		c-0.795-0.062-1.627-0.093-2.494-0.093c-0.87,0-1.807,0.03-2.812,0.093c-1.004,0.062-1.879,0.092-2.623,0.092
		c-0.075,0-0.143-0.092-0.206-0.277c-0.062-0.188-0.092-0.367-0.092-0.542c0-0.123,0.03-0.285,0.092-0.483
		c0.063-0.197,0.131-0.309,0.206-0.334c1.091-0.123,1.779-0.367,2.065-0.728c0.286-0.359,0.429-1.158,0.429-2.399V32.133
		c0-0.967-0.187-1.606-0.56-1.917c-0.372-0.31-1.018-0.514-1.935-0.614c-0.075-0.024-0.143-0.129-0.206-0.316
		c-0.062-0.187-0.092-0.34-0.092-0.465c0-0.125,0.03-0.285,0.092-0.484c0.063-0.198,0.131-0.298,0.206-0.298
		c1.165-0.248,2.512-0.657,4.038-1.229c1.526-0.57,2.662-1.042,3.406-1.415c0.074-0.049,0.198-0.11,0.373-0.185
		c0.173-0.075,0.322-0.112,0.445-0.112c0.322,0,0.546,0.049,0.671,0.149c0.123,0.099,0.187,0.211,0.187,0.334
		c-0.075,0.943-0.143,2.035-0.206,3.276c-0.062,1.241-0.093,2.246-0.093,3.016v6.624c0.547-1.164,1.353-2.027,2.42-2.586
		c1.066-0.559,2.134-0.837,3.202-0.837c1.86,0,3.312,0.577,4.354,1.73s1.563,2.464,1.563,3.929v6.774
		c0,1.192,0.148,1.986,0.447,2.382c0.297,0.398,0.991,0.646,2.084,0.745c0.074,0,0.143,0.105,0.204,0.316
		C136.813,51.162,136.845,51.329,136.845,51.452z"/>
	<path fill="#FFFFFF" d="M161.338,50.597c0,0.175-0.03,0.336-0.092,0.485c-0.063,0.149-0.132,0.224-0.206,0.224
		c-0.77,0.074-1.897,0.247-3.387,0.519c-1.489,0.275-2.63,0.535-3.424,0.784c-0.075,0-0.199,0.031-0.373,0.093
		s-0.349,0.093-0.521,0.093c-0.198,0-0.354-0.057-0.466-0.168c-0.111-0.112-0.167-0.205-0.167-0.279l-0.186-2.606
		c-0.57,1.018-1.329,1.781-2.271,2.29c-0.943,0.509-2.086,0.764-3.426,0.764c-1.935,0-3.424-0.558-4.466-1.676
		c-1.042-1.115-1.563-2.693-1.563-4.729v-5.992c0-1.115-0.193-1.855-0.577-2.216c-0.386-0.359-1.074-0.526-2.066-0.501
		c-0.074,0-0.143-0.087-0.204-0.262c-0.063-0.173-0.094-0.347-0.094-0.52c0-0.175,0.03-0.359,0.094-0.56
		c0.062-0.197,0.13-0.298,0.204-0.298c0.845,0,2.172-0.086,3.983-0.26c1.812-0.174,3.188-0.373,4.132-0.596
		c0.224-0.074,0.422-0.024,0.595,0.149c0.174,0.173,0.261,0.298,0.261,0.373v11.427c0,0.969,0.205,1.693,0.614,2.18
		c0.41,0.482,1.036,0.725,1.88,0.725c0.597,0,1.13-0.236,1.602-0.707c0.471-0.473,0.855-1.079,1.153-1.824v-7.11
		c0-1.066-0.192-1.792-0.577-2.177c-0.384-0.386-1.085-0.565-2.103-0.54c-0.075,0-0.144-0.093-0.205-0.28
		c-0.062-0.185-0.094-0.352-0.094-0.501c0-0.175,0.031-0.359,0.094-0.56c0.062-0.197,0.13-0.298,0.205-0.298
		c0.818,0,2.146-0.075,3.982-0.224c1.836-0.148,3.227-0.334,4.17-0.558c0.224-0.075,0.415-0.024,0.576,0.149
		c0.161,0.174,0.242,0.298,0.242,0.373v11.353c0,1.066,0.143,1.755,0.428,2.066c0.285,0.311,0.937,0.504,1.954,0.578
		c0.074,0,0.143,0.105,0.206,0.316C161.308,50.306,161.338,50.473,161.338,50.597z"/>
	<path fill="#FFFFFF" d="M175.78,51.452c0,0.149-0.031,0.323-0.093,0.521s-0.13,0.298-0.204,0.298c-0.77,0-1.732-0.03-2.886-0.092
		c-1.154-0.062-2.165-0.093-3.033-0.093c-0.845,0-1.774,0.03-2.793,0.093c-1.018,0.062-1.897,0.092-2.643,0.092
		c-0.074,0-0.143-0.1-0.204-0.298s-0.093-0.372-0.093-0.521c0-0.123,0.031-0.285,0.093-0.483c0.062-0.197,0.13-0.309,0.204-0.334
		c0.919-0.1,1.57-0.347,1.954-0.745c0.386-0.396,0.577-1.189,0.577-2.382V41.91c0-0.994-0.191-1.642-0.577-1.939
		c-0.384-0.298-1.035-0.496-1.954-0.597c-0.074-0.025-0.143-0.131-0.204-0.315c-0.062-0.188-0.093-0.342-0.093-0.466
		c0-0.126,0.031-0.285,0.093-0.485c0.062-0.198,0.13-0.298,0.204-0.298c1.191-0.244,2.531-0.646,4.021-1.2
		c1.489-0.556,2.643-1.03,3.463-1.424c0.074-0.05,0.197-0.112,0.371-0.185c0.174-0.075,0.322-0.112,0.447-0.112
		c0.298,0,0.515,0.05,0.651,0.149c0.136,0.099,0.192,0.211,0.167,0.335c-0.049,0.869-0.112,1.922-0.187,3.164
		c-0.073,1.241-0.11,2.282-0.11,3.128v5.844c0,1.166,0.198,1.96,0.595,2.382c0.397,0.422,1.042,0.671,1.937,0.745
		c0.074,0,0.143,0.105,0.204,0.316S175.78,51.329,175.78,51.452z M172.989,28.858c0,0.943-0.335,1.749-1.006,2.419
		c-0.669,0.669-1.464,1.004-2.382,1.004c-0.919,0-1.713-0.335-2.383-1.004c-0.67-0.671-1.005-1.477-1.005-2.419
		c0-0.919,0.335-1.713,1.005-2.382c0.67-0.671,1.464-1.006,2.383-1.006c0.918,0,1.713,0.335,2.382,1.006
		C172.654,27.146,172.989,27.939,172.989,28.858z"/>
	<path fill="#FFFFFF" d="M189.219,41.962c1.042,0.444,2.028,1.036,2.959,1.769c0.931,0.731,1.396,1.755,1.396,3.07
		c0,1.761-0.701,3.202-2.104,4.317c-1.402,1.118-3.22,1.676-5.454,1.676c-1.588,0-2.729-0.175-3.424-0.522
		c-0.695-0.347-1.688-0.521-2.979-0.521c-0.074-0.619-0.174-1.506-0.298-2.659c-0.124-1.154-0.235-1.979-0.334-2.478
		c-0.026-0.074,0.067-0.142,0.278-0.203s0.378-0.095,0.503-0.095c0.173,0,0.353,0.033,0.539,0.095s0.292,0.129,0.316,0.203
		c0.521,1.315,1.254,2.377,2.197,3.184c0.942,0.808,1.897,1.211,2.866,1.211c0.744,0,1.303-0.201,1.674-0.597
		c0.373-0.398,0.56-0.943,0.56-1.637c0-0.819-0.472-1.46-1.415-1.917c-0.943-0.46-1.898-0.912-2.866-1.359
		c-1.066-0.473-2.054-1.092-2.959-1.863c-0.906-0.769-1.359-1.822-1.359-3.163c0-1.537,0.775-2.829,2.326-3.87
		c1.552-1.042,3.245-1.564,5.082-1.564c1.191,0,2.215,0.149,3.071,0.447c0.855,0.298,1.706,0.446,2.549,0.446
		c0,0.545,0.025,1.291,0.074,2.234c0.051,0.943,0.101,1.725,0.149,2.346c0,0.075-0.105,0.142-0.316,0.203
		c-0.211,0.064-0.379,0.096-0.502,0.096c-0.174,0-0.349-0.026-0.521-0.075c-0.174-0.051-0.272-0.126-0.297-0.224
		c-0.274-1.141-0.776-2.043-1.509-2.7c-0.732-0.655-1.495-0.984-2.29-0.984c-0.743,0-1.313,0.149-1.711,0.444
		c-0.397,0.298-0.597,0.771-0.597,1.416c0,0.843,0.496,1.501,1.489,1.974C187.308,41.13,188.275,41.563,189.219,41.962z"/>
</g>
<g display="none">
	<path display="inline" fill="#0071BB" d="M103.151,30.729c0.986,0.341,3.595,1.129,3.595,1.129l-0.761-7.743
		c0,0-0.47-1.211,1.064-1.591c1.534-0.378,7.922-1.793,14.009-0.082c5.201,1.462,14.047,7.495,14.047,7.495
		s-7.543-8.584-13.874-12.052c-7.818-4.28-16.165-4.242-16.165-4.242s-0.346-3.305-1.791-3.249l-0.238,0.01
		c-1.445-0.056-1.791,3.247-1.791,3.247s-8.348-0.039-16.166,4.242c-6.334,3.467-13.875,12.052-13.875,12.052
		s8.846-6.033,14.048-7.494c6.087-1.711,12.475-0.298,14.01,0.082c1.532,0.38,1.066,1.591,1.066,1.591l-0.764,7.743
		c0,0,2.608-0.788,3.595-1.129L103.151,30.729z"/>
	<g display="inline">
		<path fill="#0071BB" d="M46.362,26.949c0,0.105-0.026,0.248-0.079,0.427s-0.111,0.269-0.175,0.269
			c-1.186,0.127-2.016,0.387-2.492,0.778c-0.477,0.392-0.725,1.022-0.746,1.89l-0.344,18.139c0,0.063-0.069,0.132-0.207,0.206
			c-0.139,0.074-0.367,0.111-0.685,0.111c-0.234,0-0.436-0.016-0.605-0.048c-0.17-0.031-0.297-0.101-0.382-0.206L25.214,32.913
			l-0.188,11.344c-0.043,0.826,0.18,1.445,0.667,1.858s1.344,0.684,2.572,0.811c0.063,0,0.122,0.079,0.175,0.237
			s0.079,0.311,0.079,0.458c0,0.127-0.026,0.274-0.079,0.442c-0.053,0.169-0.111,0.253-0.175,0.253
			c-0.804,0-1.545-0.026-2.223-0.078c-0.677-0.053-1.389-0.078-2.135-0.078c-0.767,0-1.473,0.025-2.118,0.078
			c-0.646,0.052-1.328,0.078-2.048,0.078c-0.063,0-0.122-0.084-0.175-0.253c-0.053-0.168-0.079-0.315-0.079-0.442
			c0-0.147,0.031-0.295,0.095-0.442s0.127-0.231,0.19-0.253c1.207-0.127,2.043-0.392,2.509-0.794
			c0.465-0.402,0.698-1.027,0.698-1.874l0.516-12.929c0.019-1.144-0.215-2.006-0.7-2.589c-0.486-0.582-1.406-0.947-2.761-1.096
			c-0.063-0.021-0.116-0.116-0.159-0.284c-0.042-0.169-0.063-0.306-0.063-0.411c0-0.147,0.026-0.3,0.08-0.458
			c0.053-0.158,0.111-0.237,0.175-0.237c0.508,0,1.111,0.026,1.81,0.078c0.698,0.052,1.266,0.078,1.704,0.078
			c0.507,0,0.986-0.026,1.437-0.078c0.451-0.052,1.033-0.078,1.747-0.078l14.2,14.355V30.314c0-0.869-0.254-1.494-0.762-1.875
			c-0.508-0.381-1.376-0.646-2.604-0.794c-0.063-0.021-0.122-0.105-0.175-0.253s-0.079-0.295-0.079-0.442
			c0-0.126,0.026-0.274,0.079-0.442s0.111-0.253,0.175-0.253c0.825,0,1.529,0.026,2.111,0.078c0.582,0.052,1.243,0.078,1.984,0.078
			c0.763,0,1.515-0.026,2.255-0.078c0.741-0.052,1.461-0.078,2.159-0.078c0.063,0,0.122,0.079,0.175,0.237
			S46.362,26.802,46.362,26.949z"/>
		<path fill="#0071BB" d="M57.694,47.621c0,0.127-0.027,0.274-0.08,0.442c-0.053,0.169-0.111,0.253-0.174,0.253
			c-0.656,0-1.477-0.026-2.46-0.078c-0.983-0.053-1.845-0.078-2.585-0.078c-0.719,0-1.512,0.025-2.379,0.078
			c-0.867,0.052-1.619,0.078-2.254,0.078c-0.063,0-0.122-0.084-0.174-0.253c-0.053-0.168-0.08-0.315-0.08-0.442
			c0-0.105,0.026-0.242,0.08-0.411c0.053-0.168,0.111-0.263,0.174-0.284c0.783-0.085,1.339-0.297,1.667-0.636
			s0.492-1.018,0.492-2.035V39.48c0-0.849-0.164-1.4-0.491-1.654c-0.327-0.255-0.881-0.425-1.663-0.51
			c-0.063-0.021-0.121-0.11-0.174-0.269s-0.079-0.29-0.079-0.396s0.026-0.242,0.079-0.411s0.111-0.253,0.174-0.253
			c1.014-0.211,2.154-0.554,3.421-1.028c1.268-0.475,2.25-0.881,2.947-1.219c0.063-0.042,0.168-0.095,0.317-0.158
			c0.147-0.063,0.274-0.095,0.38-0.095c0.254,0,0.438,0.042,0.555,0.127c0.116,0.085,0.164,0.18,0.143,0.286
			c-0.042,0.741-0.094,1.641-0.156,2.699s-0.094,1.948-0.094,2.668v4.986c0,0.996,0.169,1.675,0.508,2.035s0.889,0.572,1.651,0.636
			c0.063,0,0.121,0.09,0.174,0.269C57.667,47.374,57.694,47.516,57.694,47.621z M55.312,28.348c0,0.805-0.286,1.493-0.857,2.064
			c-0.572,0.572-1.25,0.857-2.033,0.857c-0.784,0-1.461-0.286-2.033-0.857c-0.571-0.572-0.857-1.26-0.857-2.064
			c0-0.784,0.286-1.461,0.857-2.033c0.572-0.571,1.25-0.857,2.033-0.857c0.783,0,1.461,0.286,2.033,0.857
			C55.026,26.887,55.312,27.564,55.312,28.348z"/>
		<path fill="#0071BB" d="M67.411,33.933c-0.042,0.741-0.094,1.641-0.156,2.699s-0.094,1.948-0.094,2.667v9.527
			c0,1.758-0.703,3.318-2.109,4.685c-1.406,1.365-3.304,2.535-5.693,3.509c-0.084,0.021-0.228-0.11-0.428-0.396
			c-0.201-0.284-0.301-0.511-0.301-0.68c0-0.042,0.011-0.09,0.032-0.142c0.021-0.054,0.053-0.09,0.095-0.111
			c1.121-0.657,1.908-1.378,2.363-2.162s0.682-1.78,0.682-2.988V39.51c0-0.826-0.164-1.377-0.491-1.652s-0.881-0.456-1.662-0.541
			c-0.063,0-0.122-0.079-0.174-0.237s-0.079-0.29-0.079-0.396s0.026-0.242,0.079-0.411s0.111-0.253,0.174-0.253
			c1.014-0.232,2.128-0.569,3.343-1.013c1.214-0.443,2.223-0.854,3.025-1.234c0.063-0.042,0.169-0.095,0.316-0.158
			c0.148-0.063,0.275-0.095,0.381-0.095c0.253,0,0.438,0.042,0.554,0.127C67.384,33.731,67.432,33.827,67.411,33.933z
			 M67.192,28.348c0,0.805-0.286,1.493-0.858,2.064c-0.571,0.572-1.249,0.857-2.033,0.857s-1.461-0.286-2.033-0.857
			c-0.572-0.572-0.858-1.26-0.858-2.064c0-0.784,0.286-1.461,0.858-2.033c0.571-0.571,1.249-0.857,2.033-0.857
			s1.461,0.286,2.033,0.857C66.906,26.887,67.192,27.564,67.192,28.348z"/>
		<path fill="#0071BB" d="M86.718,39.823c0,0.148-0.053,0.265-0.159,0.351c-0.105,0.084-0.254,0.127-0.444,0.127h-8.756
			c-0.021,0.148-0.032,0.344-0.032,0.588c0,0.243,0,0.471,0,0.682c0,1.778,0.291,3.016,0.871,3.715
			c0.581,0.697,1.42,1.047,2.519,1.047c0.76,0,1.615-0.19,2.566-0.572c0.95-0.382,1.637-0.858,2.059-1.431
			c0.021-0.042,0.084-0.026,0.191,0.048c0.106,0.074,0.202,0.143,0.287,0.205c0.106,0.106,0.196,0.218,0.27,0.334
			s0.112,0.227,0.112,0.332c0,0.043-0.005,0.085-0.016,0.127c-0.011,0.043-0.037,0.085-0.079,0.127
			c-0.529,0.762-1.312,1.502-2.348,2.221s-2.422,1.078-4.156,1.078c-2.263,0-4.167-0.73-5.71-2.192s-2.316-3.188-2.316-5.179
			c0-2.246,0.735-4.104,2.206-5.577c1.471-1.472,3.412-2.208,5.825-2.208c2.2,0,3.936,0.595,5.205,1.783
			C86.083,36.617,86.718,38.082,86.718,39.823z M81.453,37.434c0-0.636-0.143-1.176-0.428-1.621
			c-0.286-0.445-0.714-0.668-1.285-0.668c-0.698,0-1.217,0.339-1.555,1.018c-0.339,0.679-0.561,1.568-0.667,2.671l2.602-0.063
			c0.465-0.021,0.804-0.111,1.015-0.271S81.453,37.985,81.453,37.434z"/>
		<path fill="#0071BB" d="M109.586,47.668c0,0.127-0.026,0.274-0.079,0.442c-0.054,0.169-0.111,0.253-0.175,0.253
			c-0.656,0-1.413-0.034-2.27-0.102c-0.857-0.068-1.656-0.102-2.396-0.102c-0.719,0-1.428,0.033-2.126,0.102
			c-0.698,0.067-1.364,0.102-1.999,0.102c-0.063,0-0.122-0.084-0.175-0.253c-0.053-0.168-0.079-0.315-0.079-0.442
			s0.026-0.269,0.079-0.427s0.111-0.247,0.175-0.269c0.424-0.064,0.742-0.271,0.954-0.623s0.318-1.039,0.318-2.062v-5.049
			c0-1.059-0.122-1.811-0.366-2.255c-0.243-0.444-0.736-0.667-1.479-0.667c-0.615,0-1.113,0.207-1.495,0.621
			c-0.382,0.414-0.763,1.077-1.145,1.989v5.36c0,0.938,0.101,1.609,0.302,2.014c0.202,0.405,0.515,0.629,0.938,0.672
			c0.063,0,0.122,0.079,0.175,0.237c0.053,0.158,0.08,0.311,0.08,0.458s-0.027,0.301-0.08,0.458
			c-0.053,0.158-0.111,0.237-0.174,0.237c-0.656,0-1.322-0.034-1.999-0.102c-0.677-0.068-1.386-0.102-2.126-0.102
			s-1.539,0.033-2.396,0.102c-0.856,0.067-1.603,0.102-2.237,0.102c-0.063,0-0.122-0.079-0.175-0.237
			c-0.053-0.157-0.079-0.311-0.079-0.458s0.026-0.295,0.079-0.442s0.111-0.231,0.175-0.253c0.931-0.128,1.519-0.347,1.762-0.655
			c0.243-0.31,0.365-0.986,0.365-2.03v-4.994c0-0.891-0.096-1.458-0.286-1.702s-0.677-0.408-1.46-0.493
			c-0.063,0-0.122-0.084-0.175-0.253s-0.079-0.306-0.079-0.411s0.026-0.237,0.079-0.396s0.111-0.237,0.175-0.237
			c0.72-0.19,1.708-0.522,2.966-0.997c1.258-0.475,2.183-0.86,2.775-1.156c0.063-0.042,0.169-0.095,0.317-0.158
			c0.148-0.063,0.274-0.095,0.381-0.095c0.253,0,0.438,0.048,0.555,0.144c0.116,0.095,0.164,0.186,0.143,0.271l-0.125,3.055
			c0.423-1.041,1.095-1.838,2.016-2.39c0.921-0.552,1.89-0.829,2.905-0.829c1.588,0,2.825,0.498,3.715,1.493
			c0.889,0.995,1.333,2.107,1.333,3.335v5.814c0,1.023,0.127,1.699,0.381,2.03c0.254,0.33,0.847,0.549,1.778,0.655
			c0.063,0,0.121,0.09,0.175,0.269C109.56,47.421,109.586,47.562,109.586,47.668z"/>
		<path fill="#0071BB" d="M130.772,47.621c0,0.127-0.026,0.274-0.079,0.442c-0.054,0.169-0.111,0.253-0.175,0.253
			c-0.656,0-1.413-0.026-2.271-0.078c-0.856-0.053-1.655-0.078-2.396-0.078c-0.72,0-1.428,0.025-2.126,0.078
			c-0.698,0.052-1.365,0.078-1.999,0.078c-0.063,0-0.122-0.084-0.175-0.253c-0.053-0.168-0.079-0.315-0.079-0.442
			c0-0.105,0.026-0.242,0.079-0.411c0.053-0.168,0.111-0.263,0.175-0.284c0.425-0.063,0.742-0.271,0.954-0.62S123,45.272,123,44.255
			v-5.017c0-1.059-0.127-1.815-0.382-2.271c-0.254-0.455-0.742-0.683-1.463-0.683c-0.614,0-1.113,0.207-1.495,0.619
			c-0.381,0.413-0.763,1.074-1.145,1.984v5.366c0,0.933,0.101,1.601,0.302,2.003c0.202,0.403,0.515,0.626,0.938,0.668
			c0.063,0,0.122,0.09,0.175,0.269c0.054,0.18,0.08,0.321,0.08,0.427c0,0.147-0.026,0.301-0.079,0.458
			c-0.054,0.158-0.111,0.237-0.175,0.237c-0.656,0-1.322-0.026-1.999-0.078c-0.678-0.053-1.386-0.078-2.126-0.078
			s-1.539,0.025-2.396,0.078c-0.856,0.052-1.603,0.078-2.237,0.078c-0.064,0-0.122-0.079-0.175-0.237
			c-0.054-0.157-0.079-0.311-0.079-0.458c0-0.105,0.025-0.242,0.079-0.411c0.053-0.168,0.11-0.263,0.175-0.284
			c0.931-0.105,1.519-0.312,1.762-0.62s0.365-0.991,0.365-2.051V31.146c0-0.825-0.158-1.37-0.475-1.635
			c-0.317-0.264-0.866-0.438-1.646-0.523c-0.064-0.021-0.122-0.11-0.175-0.269s-0.079-0.29-0.079-0.396s0.026-0.242,0.079-0.411
			c0.053-0.168,0.11-0.253,0.175-0.253c0.992-0.212,2.138-0.562,3.438-1.051c1.299-0.488,2.265-0.892,2.898-1.21
			c0.063-0.042,0.169-0.096,0.316-0.159c0.148-0.063,0.275-0.096,0.381-0.096c0.274,0,0.465,0.042,0.57,0.127
			c0.105,0.085,0.158,0.18,0.158,0.285c-0.062,0.804-0.12,1.735-0.172,2.792c-0.053,1.058-0.078,1.914-0.078,2.57v5.647
			c0.466-0.995,1.153-1.73,2.064-2.207c0.91-0.477,1.82-0.715,2.73-0.715c1.588,0,2.826,0.492,3.715,1.478
			c0.89,0.984,1.334,2.102,1.334,3.351v5.782c0,1.018,0.127,1.696,0.381,2.035s0.847,0.551,1.778,0.636
			c0.063,0,0.121,0.09,0.175,0.269C130.746,47.374,130.772,47.516,130.772,47.621z"/>
		<path fill="#0071BB" d="M151.65,46.902c0,0.148-0.026,0.285-0.079,0.412c-0.054,0.126-0.111,0.189-0.175,0.189
			c-0.655,0.063-1.617,0.211-2.887,0.443c-1.269,0.231-2.241,0.453-2.918,0.664c-0.063,0-0.17,0.026-0.317,0.079
			c-0.148,0.053-0.296,0.079-0.444,0.079c-0.169,0-0.301-0.048-0.396-0.143s-0.143-0.174-0.143-0.237l-0.156-2.214
			c-0.486,0.865-1.133,1.514-1.937,1.945s-1.778,0.648-2.921,0.648c-1.65,0-2.92-0.477-3.81-1.431
			c-0.889-0.953-1.333-2.3-1.333-4.037v-5.118c0-0.953-0.164-1.584-0.494-1.891c-0.328-0.308-0.918-0.451-1.767-0.43
			c-0.063,0-0.122-0.074-0.175-0.221c-0.054-0.147-0.08-0.295-0.08-0.443c0-0.147,0.026-0.305,0.079-0.474
			c0.054-0.168,0.111-0.253,0.175-0.253c0.72,0,1.852-0.074,3.397-0.224c1.546-0.148,2.72-0.319,3.524-0.511
			c0.19-0.063,0.359-0.021,0.508,0.127s0.223,0.254,0.223,0.318v9.762c0,0.827,0.175,1.447,0.524,1.86
			c0.351,0.413,0.886,0.62,1.606,0.62c0.509,0,0.965-0.201,1.367-0.604c0.403-0.402,0.732-0.922,0.986-1.557v-6.067
			c0-0.911-0.164-1.53-0.493-1.858s-0.929-0.482-1.799-0.461c-0.063,0-0.122-0.079-0.175-0.237c-0.054-0.158-0.08-0.3-0.08-0.427
			c0-0.147,0.026-0.305,0.079-0.474s0.111-0.253,0.175-0.253c0.698,0,1.831-0.064,3.397-0.192s2.752-0.288,3.557-0.48
			c0.19-0.063,0.354-0.021,0.491,0.127c0.139,0.148,0.207,0.254,0.207,0.318v9.69c0,0.911,0.121,1.499,0.364,1.764
			s0.798,0.429,1.663,0.492c0.063,0,0.122,0.09,0.175,0.27C151.624,46.655,151.65,46.798,151.65,46.902z"/>
		<path fill="#0071BB" d="M163.984,47.621c0,0.127-0.027,0.274-0.08,0.442c-0.053,0.169-0.11,0.253-0.174,0.253
			c-0.656,0-1.477-0.026-2.46-0.078c-0.983-0.053-1.845-0.078-2.585-0.078c-0.719,0-1.512,0.025-2.379,0.078
			c-0.867,0.052-1.619,0.078-2.254,0.078c-0.063,0-0.121-0.084-0.174-0.253c-0.054-0.168-0.08-0.315-0.08-0.442
			c0-0.105,0.026-0.242,0.08-0.411c0.053-0.168,0.11-0.263,0.174-0.284c0.783-0.085,1.339-0.297,1.667-0.636
			s0.492-1.018,0.492-2.035V39.48c0-0.849-0.163-1.4-0.491-1.654c-0.326-0.255-0.881-0.425-1.662-0.51
			c-0.063-0.021-0.121-0.11-0.174-0.269s-0.079-0.29-0.079-0.396s0.026-0.242,0.079-0.411s0.111-0.253,0.174-0.253
			c1.014-0.211,2.154-0.554,3.422-1.028s2.25-0.881,2.947-1.219c0.062-0.042,0.168-0.095,0.316-0.158
			c0.147-0.063,0.274-0.095,0.38-0.095c0.254,0,0.438,0.042,0.555,0.127c0.116,0.085,0.163,0.18,0.143,0.286
			c-0.042,0.741-0.094,1.641-0.156,2.699s-0.094,1.948-0.094,2.668v4.986c0,0.996,0.169,1.675,0.508,2.035s0.889,0.572,1.651,0.636
			c0.063,0,0.121,0.09,0.174,0.269C163.957,47.374,163.984,47.516,163.984,47.621z M161.603,28.348c0,0.805-0.286,1.493-0.857,2.064
			c-0.572,0.572-1.25,0.857-2.033,0.857c-0.784,0-1.461-0.286-2.033-0.857c-0.571-0.572-0.857-1.26-0.857-2.064
			c0-0.784,0.286-1.461,0.857-2.033c0.572-0.571,1.249-0.857,2.033-0.857c0.783,0,1.461,0.286,2.033,0.857
			C161.316,26.887,161.603,27.564,161.603,28.348z"/>
		<path fill="#0071BB" d="M175.458,39.523c0.888,0.381,1.729,0.885,2.521,1.509c0.793,0.625,1.189,1.499,1.189,2.622
			c0,1.504-0.598,2.732-1.793,3.686c-1.194,0.953-2.744,1.43-4.647,1.43c-1.354,0-2.327-0.148-2.92-0.445
			c-0.592-0.297-1.438-0.445-2.538-0.445c-0.063-0.529-0.147-1.287-0.254-2.271c-0.105-0.984-0.2-1.689-0.285-2.112
			c-0.021-0.063,0.058-0.122,0.237-0.175c0.179-0.053,0.321-0.08,0.427-0.08c0.147,0,0.3,0.027,0.458,0.08s0.248,0.111,0.269,0.174
			c0.444,1.121,1.068,2.025,1.872,2.713s1.618,1.031,2.443,1.031c0.634,0,1.109-0.169,1.428-0.508
			c0.316-0.338,0.476-0.804,0.476-1.396c0-0.697-0.401-1.242-1.206-1.634c-0.803-0.392-1.617-0.777-2.442-1.158
			c-0.909-0.402-1.75-0.933-2.521-1.589c-0.772-0.656-1.158-1.557-1.158-2.701c0-1.312,0.661-2.415,1.983-3.304
			s2.766-1.334,4.332-1.334c1.015,0,1.887,0.128,2.617,0.383c0.73,0.255,1.455,0.383,2.174,0.383c0,0.466,0.021,1.101,0.063,1.905
			c0.042,0.804,0.085,1.471,0.127,2c0,0.063-0.09,0.122-0.269,0.175c-0.18,0.053-0.321,0.079-0.427,0.079
			c-0.147,0-0.295-0.021-0.442-0.063c-0.147-0.042-0.232-0.105-0.253-0.189c-0.232-0.973-0.661-1.739-1.285-2.3
			s-1.274-0.841-1.951-0.841c-0.635,0-1.121,0.127-1.459,0.381c-0.339,0.254-0.508,0.656-0.508,1.205c0,0.72,0.423,1.28,1.269,1.683
			C173.83,38.814,174.654,39.185,175.458,39.523z"/>
	</g>
	<g display="inline">
		<g>
			<path fill="#0071BB" d="M70.381,52.008h0.577v1.952h0.019c0.074-0.13,0.167-0.224,0.279-0.278
				c0.112-0.057,0.242-0.084,0.381-0.084c0.399,0,0.66,0.334,0.66,0.79v3.402c0,0.763-0.372,0.985-0.744,0.985
				c-0.344,0-0.474-0.177-0.613-0.371H70.92v0.315h-0.54V52.008z M71.72,54.703c0-0.371-0.111-0.586-0.344-0.586
				c-0.251,0-0.418,0.242-0.418,0.559v3.077c0,0.409,0.195,0.558,0.428,0.558s0.334-0.186,0.334-0.539V54.703z"/>
			<path fill="#0071BB" d="M73.895,54.573c0-0.771,0.465-0.976,0.958-0.976c0.493,0,0.958,0.204,0.958,0.976v3.226
				c0,0.771-0.465,0.977-0.958,0.977c-0.493,0-0.958-0.205-0.958-0.977V54.573z M75.234,54.573c0-0.372-0.149-0.511-0.381-0.511
				s-0.381,0.139-0.381,0.511v3.226c0,0.373,0.148,0.512,0.381,0.512s0.381-0.139,0.381-0.512V54.573z"/>
			<path fill="#0071BB" d="M77.502,52.975l0.576-0.223v0.9h0.409v0.465h-0.409v3.85c0,0.232,0.121,0.288,0.288,0.288h0.121v0.465
				h-0.279c-0.483,0-0.707-0.232-0.707-0.623v-3.979h-0.288v-0.465h0.288V52.975z"/>
			<path fill="#0071BB" d="M81.23,57.084h0.577v0.715c0,0.771-0.465,0.977-0.958,0.977c-0.493,0-0.958-0.205-0.958-0.977v-3.226
				c0-0.771,0.465-0.976,0.958-0.976c0.493,0,0.958,0.204,0.958,0.976v1.757h-1.339v1.469c0,0.373,0.148,0.512,0.381,0.512
				s0.381-0.139,0.381-0.512V57.084z M81.23,54.573c0-0.372-0.149-0.511-0.381-0.511s-0.381,0.139-0.381,0.511v1.237h0.762V54.573z"
				/>
			<path fill="#0071BB" d="M83.405,53.652h0.54v0.345h0.019c0.13-0.214,0.372-0.399,0.669-0.399c0.474,0,0.688,0.354,0.688,0.762
				v4.36h-0.577v-4.138c0-0.27-0.102-0.465-0.362-0.465c-0.27,0-0.4,0.261-0.4,0.465v4.138h-0.577V53.652z"/>
			<path fill="#0071BB" d="M86.752,53.652h0.539l0.483,4.287h0.019l0.483-4.287h0.539l-0.604,5.067h-0.855L86.752,53.652z"/>
			<path fill="#0071BB" d="M91.586,57.084h0.577v0.715c0,0.771-0.465,0.977-0.958,0.977c-0.493,0-0.958-0.205-0.958-0.977v-3.226
				c0-0.771,0.465-0.976,0.958-0.976c0.493,0,0.958,0.204,0.958,0.976v1.757h-1.339v1.469c0,0.373,0.148,0.512,0.381,0.512
				s0.381-0.139,0.381-0.512V57.084z M91.586,54.573c0-0.372-0.149-0.511-0.381-0.511s-0.381,0.139-0.381,0.511v1.237h0.762V54.573z
				"/>
			<path fill="#0071BB" d="M93.762,53.652h0.54v0.354h0.019c0.177-0.27,0.409-0.408,0.771-0.408v0.576
				c-0.558,0-0.753,0.214-0.753,0.744v3.802h-0.577V53.652z"/>
			<path fill="#0071BB" d="M96.588,52.008h0.577v1.989h0.019c0.111-0.214,0.353-0.399,0.651-0.399c0.456,0,0.669,0.354,0.669,0.762
				v4.36h-0.577v-4.138c0-0.27-0.102-0.465-0.362-0.465c-0.27,0-0.4,0.261-0.4,0.465v4.138h-0.577V52.008z"/>
			<path fill="#0071BB" d="M102.018,58.72h-0.539v-0.344h-0.02c-0.129,0.214-0.371,0.399-0.669,0.399
				c-0.474,0-0.688-0.354-0.688-0.762v-4.361h0.577v4.138c0,0.27,0.102,0.465,0.362,0.465c0.27,0,0.4-0.261,0.4-0.465v-4.138h0.576
				V58.72z"/>
			<path fill="#0071BB" d="M105.531,58.72h-0.539v-0.344h-0.019c-0.13,0.214-0.372,0.399-0.669,0.399
				c-0.475,0-0.688-0.354-0.688-0.762v-4.361h0.577v4.138c0,0.27,0.102,0.465,0.361,0.465c0.271,0,0.4-0.261,0.4-0.465v-4.138h0.576
				V58.72z"/>
			<path fill="#0071BB" d="M107.131,53.652h0.539v0.354h0.019c0.177-0.27,0.409-0.408,0.771-0.408v0.576
				c-0.558,0-0.753,0.214-0.753,0.744v3.802h-0.576V53.652z"/>
			<path fill="#0071BB" d="M112.049,55.67h1.115v0.521h-1.115V55.67z"/>
			<path fill="#0071BB" d="M118.016,54.48c0-0.316-0.084-0.418-0.27-0.418c-0.195,0-0.316,0.13-0.316,0.418v3.449
				c0,0.26,0.074,0.381,0.289,0.381c0.213,0,0.297-0.148,0.297-0.381v-0.818h0.576v0.809c0,0.549-0.307,0.855-0.864,0.855
				c-0.465,0-0.874-0.232-0.874-0.762v-3.44c0-0.771,0.465-0.976,0.957-0.976c0.503,0,0.781,0.27,0.781,0.818v0.846h-0.576V54.48z"
				/>
			<path fill="#0071BB" d="M121.529,54.49c0-0.307-0.102-0.428-0.334-0.428c-0.326,0-0.372,0.195-0.372,0.492v0.475h-0.576v-0.596
				c0-0.52,0.437-0.836,0.967-0.836c0.558,0,0.893,0.232,0.893,0.883v4.239h-0.54v-0.27h-0.018c-0.158,0.195-0.326,0.325-0.67,0.325
				c-0.446,0-0.688-0.325-0.688-0.836v-1.377c0-0.632,0.428-0.976,1.338-0.976V54.49z M121.529,56.052
				c-0.297,0-0.762,0.12-0.762,0.548v1.153c0,0.362,0.056,0.558,0.362,0.558c0.251,0,0.399-0.186,0.399-0.521V56.052z"/>
			<path fill="#0071BB" d="M123.733,53.652h0.539v0.345h0.019c0.177-0.261,0.362-0.399,0.67-0.399c0.213,0,0.418,0.111,0.539,0.316
				c0.158-0.195,0.344-0.316,0.595-0.316c0.474,0,0.688,0.354,0.688,0.762v4.36h-0.576v-4.165c0-0.279-0.074-0.438-0.288-0.438
				c-0.232,0-0.372,0.215-0.372,0.465v4.138h-0.576v-4.165c0-0.279-0.075-0.438-0.288-0.438c-0.232,0-0.372,0.215-0.372,0.465v4.138
				h-0.576V53.652z"/>
			<path fill="#0071BB" d="M128.409,53.652h0.54v0.316h0.018c0.094-0.232,0.289-0.371,0.613-0.371c0.373,0,0.744,0.223,0.744,0.984
				v3.403c0,0.456-0.26,0.79-0.66,0.79c-0.297,0-0.539-0.139-0.66-0.371h-0.018v1.319h-0.577V53.652z M129.748,54.602
				c0-0.354-0.102-0.539-0.334-0.539s-0.428,0.148-0.428,0.558v3.077c0,0.316,0.167,0.558,0.418,0.558
				c0.232,0,0.344-0.214,0.344-0.586V54.602z"/>
			<path fill="#0071BB" d="M131.971,52.008h0.613v0.706h-0.613V52.008z M131.988,53.652h0.576v5.067h-0.576V53.652z"/>
			<path fill="#0071BB" d="M134.229,53.652h0.54v0.345h0.019c0.13-0.214,0.371-0.399,0.67-0.399c0.474,0,0.688,0.354,0.688,0.762
				v4.36h-0.576v-4.138c0-0.27-0.103-0.465-0.363-0.465c-0.27,0-0.399,0.261-0.399,0.465v4.138h-0.577V53.652z"/>
			<path fill="#0071BB" d="M139.119,53.652h0.539v5.039c0,0.688-0.325,1.032-1.004,1.032c-0.399,0-0.883-0.232-0.883-0.809v-0.187
				h0.576v0.149c0,0.315,0.168,0.437,0.363,0.437c0.241,0,0.371-0.195,0.371-0.445v-0.688h-0.019
				c-0.149,0.186-0.362,0.307-0.604,0.307c-0.354,0-0.716-0.232-0.716-0.874v-3.217c0-0.445,0.261-0.799,0.726-0.799
				c0.288,0,0.521,0.195,0.632,0.391h0.019V53.652z M139.082,54.527c0-0.298-0.223-0.41-0.438-0.41
				c-0.204,0-0.324,0.158-0.324,0.503v2.946c0,0.178,0.092,0.4,0.353,0.4c0.308,0,0.409-0.242,0.409-0.559V54.527z"/>
			<path fill="#0071BB" d="M143.35,55.67h1.115v0.521h-1.115V55.67z"/>
			<path fill="#0071BB" d="M148.201,53.652h0.576v5.43c0,0.493-0.391,0.642-0.66,0.642c-0.129,0-0.223-0.019-0.287-0.046V59.24
				c0.046,0.01,0.092,0.019,0.139,0.019c0.148,0,0.232-0.12,0.232-0.362V53.652z M148.184,52.008h0.613v0.706h-0.613V52.008z"/>
			<path fill="#0071BB" d="M151.799,54.49c0-0.307-0.102-0.428-0.334-0.428c-0.326,0-0.372,0.195-0.372,0.492v0.475h-0.576v-0.596
				c0-0.52,0.437-0.836,0.967-0.836c0.558,0,0.893,0.232,0.893,0.883v4.239h-0.54v-0.27h-0.018c-0.158,0.195-0.326,0.325-0.67,0.325
				c-0.446,0-0.688-0.325-0.688-0.836v-1.377c0-0.632,0.428-0.976,1.338-0.976V54.49z M151.799,56.052
				c-0.297,0-0.762,0.12-0.762,0.548v1.153c0,0.362,0.056,0.558,0.362,0.558c0.251,0,0.399-0.186,0.399-0.521V56.052z"/>
			<path fill="#0071BB" d="M155.137,54.48c0-0.316-0.084-0.418-0.27-0.418c-0.195,0-0.316,0.13-0.316,0.418v3.449
				c0,0.26,0.074,0.381,0.289,0.381c0.213,0,0.297-0.148,0.297-0.381v-0.818h0.576v0.809c0,0.549-0.307,0.855-0.864,0.855
				c-0.465,0-0.874-0.232-0.874-0.762v-3.44c0-0.771,0.465-0.976,0.957-0.976c0.503,0,0.781,0.27,0.781,0.818v0.846h-0.576V54.48z"
				/>
			<path fill="#0071BB" d="M157.221,52.008h0.577v1.989h0.019c0.111-0.214,0.354-0.399,0.65-0.399c0.456,0,0.67,0.354,0.67,0.762
				v4.36h-0.576v-4.138c0-0.27-0.103-0.465-0.363-0.465c-0.27,0-0.399,0.261-0.399,0.465v4.138h-0.577V52.008z"/>
			<path fill="#0071BB" d="M160.828,52.975l0.576-0.223v0.9h0.41v0.465h-0.41v3.85c0,0.232,0.121,0.288,0.289,0.288h0.121v0.465
				h-0.279c-0.483,0-0.707-0.232-0.707-0.623v-3.979h-0.287v-0.465h0.287V52.975z"/>
			<path fill="#0071BB" d="M163.217,52.008h0.577v1.989h0.019c0.111-0.214,0.354-0.399,0.65-0.399c0.456,0,0.67,0.354,0.67,0.762
				v4.36h-0.576v-4.138c0-0.27-0.103-0.465-0.363-0.465c-0.27,0-0.399,0.261-0.399,0.465v4.138h-0.577V52.008z"/>
			<path fill="#0071BB" d="M168.07,54.49c0-0.307-0.102-0.428-0.334-0.428c-0.326,0-0.373,0.195-0.373,0.492v0.475h-0.576v-0.596
				c0-0.52,0.438-0.836,0.967-0.836c0.559,0,0.893,0.232,0.893,0.883v4.239h-0.539v-0.27h-0.019
				c-0.158,0.195-0.325,0.325-0.669,0.325c-0.447,0-0.688-0.325-0.688-0.836v-1.377c0-0.632,0.428-0.976,1.339-0.976V54.49z
				 M168.07,56.052c-0.297,0-0.762,0.12-0.762,0.548v1.153c0,0.362,0.055,0.558,0.361,0.558c0.252,0,0.4-0.186,0.4-0.521V56.052z"/>
			<path fill="#0071BB" d="M170.078,53.652h0.539l0.484,4.287h0.018l0.484-4.287h0.539l-0.604,5.067h-0.855L170.078,53.652z"/>
			<path fill="#0071BB" d="M174.912,57.084h0.577v0.715c0,0.771-0.465,0.977-0.958,0.977c-0.492,0-0.957-0.205-0.957-0.977v-3.226
				c0-0.771,0.465-0.976,0.957-0.976c0.493,0,0.958,0.204,0.958,0.976v1.757h-1.339v1.469c0,0.373,0.148,0.512,0.381,0.512
				s0.381-0.139,0.381-0.512V57.084z M174.912,54.573c0-0.372-0.148-0.511-0.381-0.511s-0.381,0.139-0.381,0.511v1.237h0.762V54.573
				z"/>
			<path fill="#0071BB" d="M177.088,53.652h0.539v0.345h0.02c0.129-0.214,0.371-0.399,0.669-0.399c0.474,0,0.688,0.354,0.688,0.762
				v4.36h-0.577v-4.138c0-0.27-0.103-0.465-0.362-0.465c-0.27,0-0.4,0.261-0.4,0.465v4.138h-0.576V53.652z"/>
		</g>
	</g>
</g>
</svg>
