<?xml version="1.0" encoding="UTF-8"?>
<!DOCTYPE svg PUBLIC "-//W3C//DTD SVG 1.1//EN" "http://www.w3.org/Graphics/SVG/1.1/DTD/svg11.dtd">
<svg xmlns="http://www.w3.org/2000/svg" version="1.1" width="750px" height="750px" style="shape-rendering:geometricPrecision; text-rendering:geometricPrecision; image-rendering:optimizeQuality; fill-rule:evenodd; clip-rule:evenodd" xmlns:xlink="http://www.w3.org/1999/xlink">
<g><path style="opacity:1" fill="#fefefe" d="M -0.5,-0.5 C 249.5,-0.5 499.5,-0.5 749.5,-0.5C 749.5,249.5 749.5,499.5 749.5,749.5C 499.5,749.5 249.5,749.5 -0.5,749.5C -0.5,499.5 -0.5,249.5 -0.5,-0.5 Z"/></g>
<g><path style="opacity:1" fill="#f091e0" d="M 446.5,353.5 C 446.5,353.833 446.5,354.167 446.5,354.5C 445.596,353.791 445.263,352.791 445.5,351.5C 444.167,351.5 442.833,351.5 441.5,351.5C 438.455,351.492 435.455,351.159 432.5,350.5C 431.789,353.864 432.956,356.197 436,357.5C 436.49,358.793 436.657,360.127 436.5,361.5C 434.708,361.634 433.042,361.301 431.5,360.5C 431.207,356.563 431.54,352.73 432.5,349C 436.833,348.333 441.167,348.333 445.5,349C 446.38,350.356 446.714,351.856 446.5,353.5 Z"/></g>
<g><path style="opacity:1" fill="#d86ad6" d="M 441.5,351.5 C 442.833,351.5 444.167,351.5 445.5,351.5C 445.263,352.791 445.596,353.791 446.5,354.5C 446.5,361.5 446.5,368.5 446.5,375.5C 446.167,375.5 445.833,375.5 445.5,375.5C 445.828,370.125 445.495,364.792 444.5,359.5C 443.859,360.993 442.859,361.993 441.5,362.5C 442.573,360.347 442.573,358.347 441.5,356.5C 440.929,354.64 440.929,352.973 441.5,351.5 Z"/></g>
<g><path style="opacity:1" fill="#e5aadc" d="M 368.5,352.5 C 368.738,354.404 369.738,355.738 371.5,356.5C 371.737,357.791 371.404,358.791 370.5,359.5C 369.833,359.5 369.167,359.5 368.5,359.5C 367.732,358.737 367.232,357.737 367,356.5C 366.617,357.056 366.117,357.389 365.5,357.5C 365.75,355.326 366.75,353.659 368.5,352.5 Z"/></g>
<g><path style="opacity:1" fill="#ee9eec" d="M 391.5,351.5 C 395.207,356.247 397.874,361.581 399.5,367.5C 399.822,373.358 399.489,379.025 398.5,384.5C 398.5,383.5 398.5,382.5 398.5,381.5C 398.5,379.5 398.5,377.5 398.5,375.5C 398.917,367.999 396.751,361.333 392,355.5C 389.735,361.895 388.902,368.562 389.5,375.5C 388.973,370.029 387.973,364.029 386.5,357.5C 387.622,356.053 389.122,355.053 391,354.5C 391.483,353.552 391.649,352.552 391.5,351.5 Z"/></g>
<g><path style="opacity:1" fill="#c5c7c8" d="M 222.5,348.5 C 223.479,351.625 223.813,354.958 223.5,358.5C 227.5,358.5 231.5,358.5 235.5,358.5C 235.335,355.15 235.502,351.817 236,348.5C 236.793,352.423 236.626,356.256 235.5,360C 231.5,360.667 227.5,360.667 223.5,360C 222.54,356.27 222.207,352.437 222.5,348.5 Z"/></g>
<g><path style="opacity:1" fill="#dedfe0" d="M 185.5,354.5 C 186.388,371.368 186.888,388.368 187,405.5C 185.543,388.57 185.043,371.57 185.5,354.5 Z"/></g>
<g><path style="opacity:1" fill="#e668ca" d="M 391.5,351.5 C 391.649,352.552 391.483,353.552 391,354.5C 389.122,355.053 387.622,356.053 386.5,357.5C 386.167,357.5 385.833,357.5 385.5,357.5C 385.689,361.64 386.356,365.64 387.5,369.5C 386.448,369.649 385.448,369.483 384.5,369C 383.468,367.373 382.134,366.207 380.5,365.5C 380.304,363.354 379.304,363.188 377.5,365C 376.76,366.785 376.093,368.618 375.5,370.5C 374.635,371.583 373.635,371.749 372.5,371C 371.77,366.048 371.436,361.214 371.5,356.5C 369.738,355.738 368.738,354.404 368.5,352.5C 370.948,348.025 374.781,346.025 380,346.5C 384.795,346.152 388.629,347.818 391.5,351.5 Z"/></g>
<g><path style="opacity:1" fill="#f75fd1" d="M 385.5,357.5 C 383.608,361.168 380.608,362.335 376.5,361C 374.765,358.363 373.432,355.53 372.5,352.5C 373.687,351.481 374.687,350.314 375.5,349C 379.211,348.175 382.878,348.341 386.5,349.5C 387.145,351.432 388.479,352.599 390.5,353C 387.885,353.612 386.219,355.112 385.5,357.5 Z"/></g>
<g><path style="opacity:1" fill="#dd9ae0" d="M 365.5,357.5 C 366.496,362.463 366.663,367.463 366,372.5C 363.292,375.078 362.792,378.078 364.5,381.5C 362.784,383.025 360.784,384.025 358.5,384.5C 361.081,381.416 362.081,377.75 361.5,373.5C 362.15,373.196 362.817,372.863 363.5,372.5C 364.806,369.02 364.806,365.687 363.5,362.5C 363.796,360.597 364.463,358.93 365.5,357.5 Z"/></g>
<g><path style="opacity:1" fill="#b077b3" d="M 363.5,362.5 C 364.806,365.687 364.806,369.02 363.5,372.5C 362.817,372.863 362.15,373.196 361.5,373.5C 360.041,373.433 358.708,373.766 357.5,374.5C 357.328,373.508 357.662,372.842 358.5,372.5C 359.708,371.766 361.041,371.433 362.5,371.5C 362.371,369.784 362.038,368.117 361.5,366.5C 361.66,364.847 362.326,363.514 363.5,362.5 Z"/></g>
<g><path style="opacity:1" fill="#d9d9da" d="M 487.5,378.5 C 487.5,378.167 487.5,377.833 487.5,377.5C 487.5,374.167 487.5,370.833 487.5,367.5C 481.833,367.5 476.167,367.5 470.5,367.5C 470.334,362.821 470.501,358.155 471,353.5C 471.499,357.821 471.666,362.154 471.5,366.5C 477.167,366.5 482.833,366.5 488.5,366.5C 488.817,370.702 488.483,374.702 487.5,378.5 Z"/></g>
<g><path style="opacity:1" fill="#d09fd1" d="M 447.5,353.5 C 447.167,353.5 446.833,353.5 446.5,353.5C 446.714,351.856 446.38,350.356 445.5,349C 441.167,348.333 436.833,348.333 432.5,349C 431.54,352.73 431.207,356.563 431.5,360.5C 432.167,364.5 432.833,368.5 433.5,372.5C 431.72,373.99 431.054,375.99 431.5,378.5C 431.167,378.5 430.833,378.5 430.5,378.5C 430.168,368.145 430.501,357.812 431.5,347.5C 436.446,346.386 441.446,346.219 446.5,347C 447.423,349.041 447.756,351.208 447.5,353.5 Z"/></g>
<g><path style="opacity:1" fill="#c258d0" d="M 445.5,375.5 C 445.665,378.85 445.498,382.183 445,385.5C 443.172,387.711 441.672,387.211 440.5,384C 441.287,381.901 441.62,379.734 441.5,377.5C 441.5,372.5 441.5,367.5 441.5,362.5C 442.859,361.993 443.859,360.993 444.5,359.5C 445.495,364.792 445.828,370.125 445.5,375.5 Z"/></g>
<g><path style="opacity:1" fill="#efc9f2" d="M 361.5,366.5 C 362.038,368.117 362.371,369.784 362.5,371.5C 361.041,371.433 359.708,371.766 358.5,372.5C 358.992,370.181 359.992,368.181 361.5,366.5 Z"/></g>
<g><path style="opacity:1" fill="#e160c3" d="M 441.5,351.5 C 440.929,352.973 440.929,354.64 441.5,356.5C 439.418,357.585 439.084,359.085 440.5,361C 440.007,366.628 439.007,372.128 437.5,377.5C 435.833,377.5 434.167,377.5 432.5,377.5C 432.629,375.784 432.962,374.117 433.5,372.5C 432.833,368.5 432.167,364.5 431.5,360.5C 433.042,361.301 434.708,361.634 436.5,361.5C 436.657,360.127 436.49,358.793 436,357.5C 432.956,356.197 431.789,353.864 432.5,350.5C 435.455,351.159 438.455,351.492 441.5,351.5 Z"/></g>
<g><path style="opacity:1" fill="#bbbcbf" d="M 97.5,353.5 C 98.1667,364.5 98.8333,375.5 99.5,386.5C 99.1162,391.337 99.7829,396.003 101.5,400.5C 101.154,401.696 100.654,401.696 100,400.5C 99.1779,398.212 98.5112,395.878 98,393.5C 97.5001,380.171 97.3334,366.837 97.5,353.5 Z"/></g>
<g><path style="opacity:1" fill="#e064d0" d="M 398.5,375.5 C 395.303,377.425 392.303,377.425 389.5,375.5C 388.902,368.562 389.735,361.895 392,355.5C 396.751,361.333 398.917,367.999 398.5,375.5 Z"/></g>
<g><path style="opacity:1" fill="#dbdcdc" d="M 99.5,386.5 C 98.8333,375.5 98.1667,364.5 97.5,353.5C 97.3379,351.473 97.5045,349.473 98,347.5C 98.3333,347.833 98.6667,348.167 99,348.5C 99.4999,361.162 99.6666,373.829 99.5,386.5 Z"/></g>
<g><path style="opacity:1" fill="#d7d9d9" d="M 153.5,347.5 C 154.117,347.611 154.617,347.944 155,348.5C 155.888,364.869 155.555,381.202 154,397.5C 153.5,380.837 153.333,364.17 153.5,347.5 Z"/></g>
<g><path style="opacity:1" fill="#babbbb" d="M 263.5,376.5 C 266.518,376.335 269.518,376.502 272.5,377C 268.028,377.431 263.695,378.098 259.5,379C 260.858,378.066 262.192,377.232 263.5,376.5 Z"/></g>
<g><path style="opacity:1" fill="#ee89e6" d="M 441.5,356.5 C 442.573,358.347 442.573,360.347 441.5,362.5C 441.5,367.5 441.5,372.5 441.5,377.5C 440.833,377.833 440.167,378.167 439.5,378.5C 439.591,376.302 438.925,375.969 437.5,377.5C 439.007,372.128 440.007,366.628 440.5,361C 439.084,359.085 439.418,357.585 441.5,356.5 Z"/></g>
<g><path style="opacity:1" fill="#a466b8" d="M 361.5,373.5 C 362.081,377.75 361.081,381.416 358.5,384.5C 357.391,384.557 356.391,384.89 355.5,385.5C 354.549,384.081 354.216,382.415 354.5,380.5C 354.992,378.181 355.992,376.181 357.5,374.5C 358.708,373.766 360.041,373.433 361.5,373.5 Z"/></g>
<g><path style="opacity:1" fill="#b66dba" d="M 368.5,359.5 C 368.819,365.905 368.819,371.905 368.5,377.5C 369.086,377.291 369.586,376.957 370,376.5C 370.499,370.843 370.666,365.176 370.5,359.5C 371.404,358.791 371.737,357.791 371.5,356.5C 371.436,361.214 371.77,366.048 372.5,371C 373.635,371.749 374.635,371.583 375.5,370.5C 376.093,368.618 376.76,366.785 377.5,365C 379.304,363.188 380.304,363.354 380.5,365.5C 378.138,368.874 376.138,372.54 374.5,376.5C 372.281,378.575 370.281,380.909 368.5,383.5C 368.565,383.062 368.399,382.728 368,382.5C 367.148,383.571 366.315,384.571 365.5,385.5C 365.33,384.178 365.663,383.011 366.5,382C 365.906,381.536 365.239,381.369 364.5,381.5C 362.792,378.078 363.292,375.078 366,372.5C 366.663,367.463 366.496,362.463 365.5,357.5C 366.117,357.389 366.617,357.056 367,356.5C 367.232,357.737 367.732,358.737 368.5,359.5 Z"/></g>
<g><path style="opacity:1" fill="#ea94e2" d="M 368.5,359.5 C 369.167,359.5 369.833,359.5 370.5,359.5C 370.666,365.176 370.499,370.843 370,376.5C 369.586,376.957 369.086,377.291 368.5,377.5C 368.819,371.905 368.819,365.905 368.5,359.5 Z"/></g>
<g><path style="opacity:1" fill="#d5d8d8" d="M 514.5,376.5 C 520.281,375.896 525.614,377.062 530.5,380C 527.187,379.045 523.687,378.545 520,378.5C 516.04,378.065 512.54,379.065 509.5,381.5C 509.167,381.333 508.833,381.167 508.5,381C 510.389,379.236 512.389,377.736 514.5,376.5 Z"/></g>
<g><path style="opacity:1" fill="#cbcccc" d="M 628.5,378.5 C 634.099,377.08 639.765,377.247 645.5,379C 639.893,378.649 634.227,378.483 628.5,378.5 Z"/></g>
<g><path style="opacity:1" fill="#c2c3c4" d="M 302.5,376.5 C 306.308,376.163 309.974,376.663 313.5,378C 308.695,376.854 304.028,377.354 299.5,379.5C 299.167,379.333 298.833,379.167 298.5,379C 299.858,378.066 301.192,377.232 302.5,376.5 Z"/></g>
<g><path style="opacity:1" fill="#ca77c3" d="M 385.5,357.5 C 385.833,357.5 386.167,357.5 386.5,357.5C 387.973,364.029 388.973,370.029 389.5,375.5C 392.303,377.425 395.303,377.425 398.5,375.5C 398.5,377.5 398.5,379.5 398.5,381.5C 397.833,381.167 397.167,380.833 396.5,380.5C 394.544,378.825 393.211,379.158 392.5,381.5C 389.794,380.227 387.46,378.56 385.5,376.5C 384.105,372.71 382.438,369.043 380.5,365.5C 382.134,366.207 383.468,367.373 384.5,369C 385.448,369.483 386.448,369.649 387.5,369.5C 386.356,365.64 385.689,361.64 385.5,357.5 Z"/></g>
<g><path style="opacity:1" fill="#ebb3ef" d="M 402.5,373.5 C 404.065,375.509 405.065,377.843 405.5,380.5C 404.883,380.389 404.383,380.056 404,379.5C 403.741,382.587 403.241,385.587 402.5,388.5C 401.833,388.5 401.167,388.5 400.5,388.5C 400.783,387.711 401.283,387.044 402,386.5C 402.499,382.179 402.666,377.846 402.5,373.5 Z"/></g>
<g><path style="opacity:1" fill="#f6bcf8" d="M 396.5,380.5 C 395.756,383.884 394.423,384.218 392.5,381.5C 393.211,379.158 394.544,378.825 396.5,380.5 Z"/></g>
<g><path style="opacity:1" fill="#d2d4d4" d="M 198.5,377.5 C 204.176,377.334 209.843,377.501 215.5,378C 210.177,378.499 204.844,378.666 199.5,378.5C 199.428,386.893 199.595,395.226 200,403.5C 198.559,394.942 198.059,386.276 198.5,377.5 Z"/></g>
<g><path style="opacity:1" fill="#b375c2" d="M 433.5,372.5 C 432.962,374.117 432.629,375.784 432.5,377.5C 434.167,377.5 435.833,377.5 437.5,377.5C 438.925,375.969 439.591,376.302 439.5,378.5C 439.5,382.167 439.5,385.833 439.5,389.5C 439.665,392.85 439.498,396.183 439,399.5C 438.74,395.75 438.073,392.084 437,388.5C 436.768,389.737 436.268,390.737 435.5,391.5C 435.602,386.887 435.602,382.553 435.5,378.5C 434.505,383.792 434.172,389.125 434.5,394.5C 433.5,394.5 432.5,394.5 431.5,394.5C 431.5,389.167 431.5,383.833 431.5,378.5C 431.054,375.99 431.72,373.99 433.5,372.5 Z"/></g>
<g><path style="opacity:1" fill="#b26db6" d="M 399.5,367.5 C 401.008,369.181 402.008,371.181 402.5,373.5C 402.666,377.846 402.499,382.179 402,386.5C 401.283,387.044 400.783,387.711 400.5,388.5C 399.094,388.973 398.427,389.973 398.5,391.5C 397.022,392.448 396.022,393.781 395.5,395.5C 395.5,392.833 395.5,390.167 395.5,387.5C 396.5,387.5 397.5,387.5 398.5,387.5C 398.5,386.5 398.5,385.5 398.5,384.5C 399.489,379.025 399.822,373.358 399.5,367.5 Z"/></g>
<g><path style="opacity:1" fill="#8c6db7" d="M 354.5,380.5 C 354.216,382.415 354.549,384.081 355.5,385.5C 355.824,392.354 355.491,399.021 354.5,405.5C 354.5,405.167 354.5,404.833 354.5,404.5C 354.666,398.824 354.499,393.157 354,387.5C 353.667,387.167 353.333,386.833 353,386.5C 352.768,387.737 352.268,388.737 351.5,389.5C 351.5,388.5 351.5,387.5 351.5,386.5C 351.992,384.181 352.992,382.181 354.5,380.5 Z"/></g>
<g><path style="opacity:1" fill="#b17bb9" d="M 385.5,376.5 C 387.46,378.56 389.794,380.227 392.5,381.5C 394.423,384.218 395.756,383.884 396.5,380.5C 397.167,380.833 397.833,381.167 398.5,381.5C 398.5,382.5 398.5,383.5 398.5,384.5C 398.5,385.5 398.5,386.5 398.5,387.5C 397.5,387.5 396.5,387.5 395.5,387.5C 395.631,386.624 395.298,385.957 394.5,385.5C 393.516,388.428 393.183,391.428 393.5,394.5C 387.833,394.5 382.167,394.5 376.5,394.5C 381.681,393.833 387.015,393.167 392.5,392.5C 390.16,387.137 387.826,381.804 385.5,376.5 Z"/></g>
<g><path style="opacity:1" fill="#e2a6f4" d="M 435.5,391.5 C 435.817,394.546 434.484,396.213 431.5,396.5C 431.5,395.833 431.5,395.167 431.5,394.5C 432.5,394.5 433.5,394.5 434.5,394.5C 434.172,389.125 434.505,383.792 435.5,378.5C 435.602,382.553 435.602,386.887 435.5,391.5 Z"/></g>
<g><path style="opacity:1" fill="#875ba8" d="M 364.5,381.5 C 365.239,381.369 365.906,381.536 366.5,382C 365.663,383.011 365.33,384.178 365.5,385.5C 364.167,386.833 362.833,388.167 361.5,389.5C 360.833,389.5 360.167,389.5 359.5,389.5C 359.196,387.204 358.196,386.871 356.5,388.5C 356.733,386.938 357.4,385.605 358.5,384.5C 360.784,384.025 362.784,383.025 364.5,381.5 Z"/></g>
<g><path style="opacity:1" fill="#d4b4f0" d="M 368.5,383.5 C 367.27,385.297 366.604,387.297 366.5,389.5C 364.901,388.438 363.234,388.438 361.5,389.5C 362.833,388.167 364.167,386.833 365.5,385.5C 366.315,384.571 367.148,383.571 368,382.5C 368.399,382.728 368.565,383.062 368.5,383.5 Z"/></g>
<g><path style="opacity:1" fill="#a96cc1" d="M 405.5,380.5 C 408.008,384.182 410.008,388.182 411.5,392.5C 411.5,393.167 411.5,393.833 411.5,394.5C 410.9,393.1 409.9,392.1 408.5,391.5C 406.668,390.282 405.668,390.949 405.5,393.5C 403.721,392.33 402.721,390.664 402.5,388.5C 403.241,385.587 403.741,382.587 404,379.5C 404.383,380.056 404.883,380.389 405.5,380.5 Z"/></g>
<g><path style="opacity:1" fill="#a156b9" d="M 445.5,375.5 C 445.833,375.5 446.167,375.5 446.5,375.5C 447.168,381.26 446.168,386.593 443.5,391.5C 442.833,391.5 442.167,391.5 441.5,391.5C 441.5,390.167 440.833,389.5 439.5,389.5C 439.5,385.833 439.5,382.167 439.5,378.5C 440.167,378.167 440.833,377.833 441.5,377.5C 441.62,379.734 441.287,381.901 440.5,384C 441.672,387.211 443.172,387.711 445,385.5C 445.498,382.183 445.665,378.85 445.5,375.5 Z"/></g>
<g><path style="opacity:1" fill="#d8d8da" d="M 328.5,375.5 C 330.41,376.975 331.576,378.975 332,381.5C 333.523,389.102 333.856,396.768 333,404.5C 332.527,406.779 331.527,408.779 330,410.5C 331.547,401.345 331.881,392.012 331,382.5C 330.153,380.146 329.32,377.812 328.5,375.5 Z"/></g>
<g><path style="opacity:1" fill="#8d7ca7" d="M 374.5,376.5 C 371.072,384.353 367.406,392.02 363.5,399.5C 364.492,396.177 365.492,392.844 366.5,389.5C 366.604,387.297 367.27,385.297 368.5,383.5C 370.281,380.909 372.281,378.575 374.5,376.5 Z"/></g>
<g><path style="opacity:1" fill="#eeb7f7" d="M 395.5,387.5 C 395.5,390.167 395.5,392.833 395.5,395.5C 395.586,396.496 395.252,397.329 394.5,398C 391.443,398.256 388.443,398.756 385.5,399.5C 385.167,399.167 384.833,398.833 384.5,398.5C 387.447,397.679 390.447,397.179 393.5,397C 394.774,396.023 394.774,395.189 393.5,394.5C 393.183,391.428 393.516,388.428 394.5,385.5C 395.298,385.957 395.631,386.624 395.5,387.5 Z"/></g>
<g><path style="opacity:1" fill="#b5b7b8" d="M 487.5,377.5 C 487.5,377.833 487.5,378.167 487.5,378.5C 482.167,378.5 476.833,378.5 471.5,378.5C 471.666,385.508 471.5,392.508 471,399.5C 470.5,392.174 470.334,384.841 470.5,377.5C 476.167,377.5 481.833,377.5 487.5,377.5 Z"/></g>
<g><path style="opacity:1" fill="#c9cbcb" d="M 566.5,386.5 C 567.124,386.917 567.457,387.584 567.5,388.5C 566.818,392.138 566.318,395.805 566,399.5C 565.294,395.113 565.46,390.78 566.5,386.5 Z"/></g>
<g><path style="opacity:1" fill="#915ab1" d="M 400.5,388.5 C 401.167,388.5 401.833,388.5 402.5,388.5C 402.721,390.664 403.721,392.33 405.5,393.5C 406.473,395.948 406.806,398.615 406.5,401.5C 405.842,402.398 405.176,403.398 404.5,404.5C 403.459,402.009 402.626,402.009 402,404.5C 401.819,401.305 401.319,398.305 400.5,395.5C 400.5,393.167 400.5,390.833 400.5,388.5 Z"/></g>
<g><path style="opacity:1" fill="#6b589c" d="M 366.5,389.5 C 365.492,392.844 364.492,396.177 363.5,399.5C 362.5,400.833 361.5,402.167 360.5,403.5C 360.226,398.737 360.559,394.07 361.5,389.5C 363.234,388.438 364.901,388.438 366.5,389.5 Z"/></g>
<g><path style="opacity:1" fill="#8054ac" d="M 408.5,391.5 C 409.9,392.1 410.9,393.1 411.5,394.5C 411.5,397.167 411.5,399.833 411.5,402.5C 410.041,402.567 408.708,402.234 407.5,401.5C 407.253,398.061 407.586,394.728 408.5,391.5 Z"/></g>
<g><path style="opacity:1" fill="#7f5ba6" d="M 439.5,389.5 C 440.833,389.5 441.5,390.167 441.5,391.5C 441.167,394.167 440.833,396.833 440.5,399.5C 442.167,399.5 443.833,399.5 445.5,399.5C 444.791,400.404 443.791,400.737 442.5,400.5C 442.768,402.099 442.434,403.432 441.5,404.5C 438.167,404.5 434.833,404.5 431.5,404.5C 431.5,403.167 431.5,401.833 431.5,400.5C 439.5,400.167 439.5,399.833 431.5,399.5C 431.5,398.5 431.5,397.5 431.5,396.5C 434.484,396.213 435.817,394.546 435.5,391.5C 436.268,390.737 436.768,389.737 437,388.5C 438.073,392.084 438.74,395.75 439,399.5C 439.498,396.183 439.665,392.85 439.5,389.5 Z"/></g>
<g><path style="opacity:1" fill="#967ebe" d="M 446.5,353.5 C 446.833,353.5 447.167,353.5 447.5,353.5C 447.802,376.2 447.469,398.866 446.5,421.5C 442.629,421.815 438.962,421.482 435.5,420.5C 437.38,420.771 438.713,420.104 439.5,418.5C 440.117,418.611 440.617,418.944 441,419.5C 442.019,418.313 443.186,417.313 444.5,416.5C 445.429,415.311 445.762,413.978 445.5,412.5C 443.5,412.5 441.5,412.5 439.5,412.5C 436.833,412.5 434.167,412.5 431.5,412.5C 431.5,412.167 431.5,411.833 431.5,411.5C 436.167,411.5 440.833,411.5 445.5,411.5C 445.5,409.833 445.5,408.167 445.5,406.5C 443.901,406.768 442.568,406.434 441.5,405.5C 441.5,405.167 441.5,404.833 441.5,404.5C 442.434,403.432 442.768,402.099 442.5,400.5C 443.791,400.737 444.791,400.404 445.5,399.5C 446.124,399.083 446.457,398.416 446.5,397.5C 445.886,395.244 444.886,393.244 443.5,391.5C 446.168,386.593 447.168,381.26 446.5,375.5C 446.5,368.5 446.5,361.5 446.5,354.5C 446.5,354.167 446.5,353.833 446.5,353.5 Z"/></g>
<g><path style="opacity:1" fill="#6759a2" d="M 359.5,389.5 C 358.593,395.106 358.26,400.773 358.5,406.5C 357.833,406.5 357.167,406.5 356.5,406.5C 356.5,400.5 356.5,394.5 356.5,388.5C 358.196,386.871 359.196,387.204 359.5,389.5 Z"/></g>
<g><path style="opacity:1" fill="#9c8fd4" d="M 359.5,389.5 C 360.167,389.5 360.833,389.5 361.5,389.5C 360.559,394.07 360.226,398.737 360.5,403.5C 360.011,404.995 359.345,406.329 358.5,407.5C 358.5,407.167 358.5,406.833 358.5,406.5C 358.26,400.773 358.593,395.106 359.5,389.5 Z"/></g>
<g><path style="opacity:1" fill="#b5a1d6" d="M 430.5,378.5 C 430.833,378.5 431.167,378.5 431.5,378.5C 431.5,383.833 431.5,389.167 431.5,394.5C 431.5,395.167 431.5,395.833 431.5,396.5C 431.5,397.5 431.5,398.5 431.5,399.5C 439.5,399.833 439.5,400.167 431.5,400.5C 431.5,401.833 431.5,403.167 431.5,404.5C 434.833,404.5 438.167,404.5 441.5,404.5C 441.5,404.833 441.5,405.167 441.5,405.5C 438.167,405.5 434.833,405.5 431.5,405.5C 431.5,407.5 431.5,409.5 431.5,411.5C 431.5,411.833 431.5,412.167 431.5,412.5C 431.5,413.5 431.5,414.5 431.5,415.5C 430.505,403.345 430.171,391.011 430.5,378.5 Z"/></g>
<g><path style="opacity:1" fill="#a798df" d="M 351.5,386.5 C 351.5,387.5 351.5,388.5 351.5,389.5C 352.097,394.294 351.43,398.627 349.5,402.5C 350.833,398.833 350.833,395.167 349.5,391.5C 349.402,389.447 350.069,387.78 351.5,386.5 Z"/></g>
<g><path style="opacity:1" fill="#784eb0" d="M 441.5,391.5 C 442.167,391.5 442.833,391.5 443.5,391.5C 444.886,393.244 445.886,395.244 446.5,397.5C 446.457,398.416 446.124,399.083 445.5,399.5C 443.833,399.5 442.167,399.5 440.5,399.5C 440.833,396.833 441.167,394.167 441.5,391.5 Z"/></g>
<g><path style="opacity:1" fill="#e4e5e5" d="M 547.5,385.5 C 548.973,388.017 549.64,390.85 549.5,394C 549.4,396.302 548.733,398.302 547.5,400C 533.5,400.333 519.5,400.667 505.5,401C 506.451,401.718 506.617,402.551 506,403.5C 504.731,402.095 504.231,400.429 504.5,398.5C 519.167,398.5 533.833,398.5 548.5,398.5C 548.261,394.158 547.927,389.824 547.5,385.5 Z"/></g>
<g><path style="opacity:1" fill="#8555a8" d="M 398.5,391.5 C 398.5,394.5 398.5,397.5 398.5,400.5C 396.654,400.222 395.32,400.889 394.5,402.5C 388.476,403.791 382.476,403.791 376.5,402.5C 375.081,403.005 374.415,404.005 374.5,405.5C 373.5,405.5 372.5,405.5 371.5,405.5C 371.5,404.167 371.5,402.833 371.5,401.5C 372.069,398.281 373.736,395.948 376.5,394.5C 382.167,394.5 387.833,394.5 393.5,394.5C 394.774,395.189 394.774,396.023 393.5,397C 390.447,397.179 387.447,397.679 384.5,398.5C 384.833,398.833 385.167,399.167 385.5,399.5C 388.443,398.756 391.443,398.256 394.5,398C 395.252,397.329 395.586,396.496 395.5,395.5C 396.022,393.781 397.022,392.448 398.5,391.5 Z"/></g>
<g><path style="opacity:1" fill="#884bb2" d="M 376.5,396.5 C 378.5,396.5 380.5,396.5 382.5,396.5C 382.421,397.93 382.754,399.264 383.5,400.5C 380.511,401.585 377.845,400.919 375.5,398.5C 375.863,397.817 376.196,397.15 376.5,396.5 Z"/></g>
<g><path style="opacity:1" fill="#6b599d" d="M 349.5,391.5 C 350.833,395.167 350.833,398.833 349.5,402.5C 349.167,402.5 348.833,402.5 348.5,402.5C 347.486,401.326 346.153,400.66 344.5,400.5C 345.929,397.304 347.595,394.304 349.5,391.5 Z"/></g>
<g><path style="opacity:1" fill="#a396de" d="M 358.5,384.5 C 357.4,385.605 356.733,386.938 356.5,388.5C 356.5,394.5 356.5,400.5 356.5,406.5C 355.749,407.573 354.749,407.74 353.5,407C 354.056,406.617 354.389,406.117 354.5,405.5C 355.491,399.021 355.824,392.354 355.5,385.5C 356.391,384.89 357.391,384.557 358.5,384.5 Z"/></g>
<g><path style="opacity:1" fill="#bda0e3" d="M 411.5,392.5 C 413.592,395.088 414.925,398.088 415.5,401.5C 414.883,401.389 414.383,401.056 414,400.5C 413.297,402.929 413.463,405.262 414.5,407.5C 412.577,407.205 410.91,406.372 409.5,405C 410.756,404.583 411.423,403.75 411.5,402.5C 411.5,399.833 411.5,397.167 411.5,394.5C 411.5,393.833 411.5,393.167 411.5,392.5 Z"/></g>
<g><path style="opacity:1" fill="#a3a5a8" d="M 664.5,388.5 C 665.495,399.321 665.828,410.321 665.5,421.5C 661.154,421.666 656.821,421.499 652.5,421C 656.486,420.501 660.486,420.334 664.5,420.5C 664.5,409.833 664.5,399.167 664.5,388.5 Z"/></g>
<g><path style="opacity:1" fill="#c9a1e9" d="M 400.5,388.5 C 400.5,390.833 400.5,393.167 400.5,395.5C 401.401,399.241 400.068,401.241 396.5,401.5C 396.5,402.5 396.5,403.5 396.5,404.5C 389.341,404.236 382.008,404.569 374.5,405.5C 374.415,404.005 375.081,403.005 376.5,402.5C 382.476,403.791 388.476,403.791 394.5,402.5C 395.32,400.889 396.654,400.222 398.5,400.5C 398.5,397.5 398.5,394.5 398.5,391.5C 398.427,389.973 399.094,388.973 400.5,388.5 Z"/></g>
<g><path style="opacity:1" fill="#7760a1" d="M 415.5,401.5 C 416.674,402.514 417.34,403.847 417.5,405.5C 417.649,406.552 417.483,407.552 417,408.5C 416.329,407.748 415.496,407.414 414.5,407.5C 413.463,405.262 413.297,402.929 414,400.5C 414.383,401.056 414.883,401.389 415.5,401.5 Z"/></g>
<g><path style="opacity:1" fill="#c6c8c9" d="M 257.5,380.5 C 258.043,380.56 258.376,380.893 258.5,381.5C 257.685,394.788 257.185,408.122 257,421.5C 252.731,422.959 248.565,422.792 244.5,421C 248.486,420.501 252.486,420.334 256.5,420.5C 256.186,407.087 256.519,393.754 257.5,380.5 Z"/></g>
<g><path style="opacity:1" fill="#585398" d="M 354.5,404.5 C 352.718,405.72 350.718,406.386 348.5,406.5C 348.433,405.041 348.766,403.708 349.5,402.5C 351.43,398.627 352.097,394.294 351.5,389.5C 352.268,388.737 352.768,387.737 353,386.5C 353.333,386.833 353.667,387.167 354,387.5C 354.499,393.157 354.666,398.824 354.5,404.5 Z"/></g>
<g><path style="opacity:1" fill="#9291b2" d="M 363.5,399.5 C 361.207,406.061 358.541,412.394 355.5,418.5C 354.5,418.5 353.5,418.5 352.5,418.5C 350.833,418.5 349.167,418.5 347.5,418.5C 347.5,417.833 347.833,417.5 348.5,417.5C 350.527,417.662 352.527,417.495 354.5,417C 356.518,414.111 357.851,410.945 358.5,407.5C 359.345,406.329 360.011,404.995 360.5,403.5C 361.5,402.167 362.5,400.833 363.5,399.5 Z"/></g>
<g><path style="opacity:1" fill="#7a58a8" d="M 400.5,395.5 C 401.319,398.305 401.819,401.305 402,404.5C 402.626,402.009 403.459,402.009 404.5,404.5C 405.176,403.398 405.842,402.398 406.5,401.5C 406.5,403.833 406.5,406.167 406.5,408.5C 406.157,410.225 405.157,410.725 403.5,410C 401.865,407.193 399.531,405.36 396.5,404.5C 396.5,403.5 396.5,402.5 396.5,401.5C 400.068,401.241 401.401,399.241 400.5,395.5 Z"/></g>
<g><path style="opacity:1" fill="#b2b3b4" d="M 622.5,381.5 C 622.548,394.586 622.548,407.919 622.5,421.5C 618.154,421.666 613.821,421.499 609.5,421C 613.486,420.501 617.486,420.334 621.5,420.5C 621.186,407.421 621.52,394.421 622.5,381.5 Z"/></g>
<g><path style="opacity:1" fill="#6e5c96" d="M 371.5,401.5 C 371.5,402.833 371.5,404.167 371.5,405.5C 372.5,405.5 373.5,405.5 374.5,405.5C 382.008,404.569 389.341,404.236 396.5,404.5C 399.531,405.36 401.865,407.193 403.5,410C 405.157,410.725 406.157,410.225 406.5,408.5C 408.5,409.833 410.167,411.5 411.5,413.5C 411.631,414.239 411.464,414.906 411,415.5C 410.31,414.262 409.81,414.262 409.5,415.5C 408.391,415.443 407.391,415.11 406.5,414.5C 406.163,411.664 404.829,410.998 402.5,412.5C 401.883,410.771 400.883,409.271 399.5,408C 389.839,407.5 380.172,407.334 370.5,407.5C 370.205,405.265 370.539,403.265 371.5,401.5 Z"/></g>
<g><path style="opacity:1" fill="#654f9e" d="M 441.5,405.5 C 442.568,406.434 443.901,406.768 445.5,406.5C 445.5,408.167 445.5,409.833 445.5,411.5C 440.833,411.5 436.167,411.5 431.5,411.5C 431.5,409.5 431.5,407.5 431.5,405.5C 434.833,405.5 438.167,405.5 441.5,405.5 Z"/></g>
<g><path style="opacity:1" fill="#bec0bf" d="M 235.5,367.5 C 236.662,385.329 236.829,403.329 236,421.5C 231.921,422.629 227.755,422.796 223.5,422C 222.368,417.587 222.201,413.087 223,408.5C 223.499,412.486 223.666,416.486 223.5,420.5C 227.5,420.5 231.5,420.5 235.5,420.5C 235.5,402.833 235.5,385.167 235.5,367.5 Z"/></g>
<g><path style="opacity:1" fill="#4b5189" d="M 354.5,404.5 C 354.5,404.833 354.5,405.167 354.5,405.5C 354.389,406.117 354.056,406.617 353.5,407C 354.749,407.74 355.749,407.573 356.5,406.5C 357.167,406.5 357.833,406.5 358.5,406.5C 358.5,406.833 358.5,407.167 358.5,407.5C 357.851,410.945 356.518,414.111 354.5,417C 352.527,417.495 350.527,417.662 348.5,417.5C 348.5,413.833 348.5,410.167 348.5,406.5C 350.718,406.386 352.718,405.72 354.5,404.5 Z"/></g>
<g><path style="opacity:1" fill="#a3aedd" d="M 351.5,408.5 C 353.912,408.694 354.912,410.027 354.5,412.5C 351.046,412.733 350.046,411.4 351.5,408.5 Z"/></g>
<g><path style="opacity:1" fill="#ba9ce5" d="M 408.5,391.5 C 407.586,394.728 407.253,398.061 407.5,401.5C 407.338,403.527 407.505,405.527 408,407.5C 412.037,411.369 415.87,415.369 419.5,419.5C 419.062,420.506 418.396,420.506 417.5,419.5C 415.833,417.167 413.833,415.167 411.5,413.5C 410.167,411.5 408.5,409.833 406.5,408.5C 406.5,406.167 406.5,403.833 406.5,401.5C 406.806,398.615 406.473,395.948 405.5,393.5C 405.668,390.949 406.668,390.282 408.5,391.5 Z"/></g>
<g><path style="opacity:1" fill="#b3a6cb" d="M 417.5,405.5 C 419.162,408.738 420.829,412.071 422.5,415.5C 420.167,412.5 417.5,409.833 414.5,407.5C 415.496,407.414 416.329,407.748 417,408.5C 417.483,407.552 417.649,406.552 417.5,405.5 Z"/></g>
<g><path style="opacity:1" fill="#b4b6b8" d="M 175.5,347.5 C 176.498,371.994 176.831,396.661 176.5,421.5C 172.154,421.666 167.821,421.499 163.5,421C 167.486,420.501 171.486,420.334 175.5,420.5C 175.5,396.167 175.5,371.833 175.5,347.5 Z"/></g>
<g><path style="opacity:1" fill="#dbdbdd" d="M 294.5,383.5 C 295.66,395.66 295.827,407.993 295,420.5C 293.004,422.059 290.671,422.726 288,422.5C 285.906,422.464 283.906,422.131 282,421.5C 281.333,410.167 281.333,398.833 282,387.5C 282.5,398.495 282.667,409.495 282.5,420.5C 286.167,420.5 289.833,420.5 293.5,420.5C 293.206,408.117 293.54,395.783 294.5,383.5 Z"/></g>
<g><path style="opacity:1" fill="#7e6cb4" d="M 342.5,404.5 C 342.5,408.833 342.5,413.167 342.5,417.5C 341.833,417.5 341.167,417.5 340.5,417.5C 340.662,415.473 340.495,413.473 340,411.5C 339.26,413.319 338.093,414.652 336.5,415.5C 338.25,411.665 340.25,407.999 342.5,404.5 Z"/></g>
<g><path style="opacity:1" fill="#888dcf" d="M 348.5,402.5 C 348.833,402.5 349.167,402.5 349.5,402.5C 348.766,403.708 348.433,405.041 348.5,406.5C 348.5,410.167 348.5,413.833 348.5,417.5C 347.833,417.5 347.5,417.833 347.5,418.5C 346.35,413.684 346.184,408.684 347,403.5C 347.383,402.944 347.883,402.611 348.5,402.5 Z"/></g>
<g><path style="opacity:1" fill="#c8c9e9" d="M 406.5,414.5 C 405.596,415.209 405.263,416.209 405.5,417.5C 404.263,416.035 403.263,414.368 402.5,412.5C 404.829,410.998 406.163,411.664 406.5,414.5 Z"/></g>
<g><path style="opacity:1" fill="#664e96" d="M 407.5,401.5 C 408.708,402.234 410.041,402.567 411.5,402.5C 411.423,403.75 410.756,404.583 409.5,405C 410.91,406.372 412.577,407.205 414.5,407.5C 417.5,409.833 420.167,412.5 422.5,415.5C 422.5,416.5 422.5,417.5 422.5,418.5C 421.609,419.11 420.609,419.443 419.5,419.5C 415.87,415.369 412.037,411.369 408,407.5C 407.505,405.527 407.338,403.527 407.5,401.5 Z"/></g>
<g><path style="opacity:1" fill="#735fa4" d="M 431.5,412.5 C 434.167,412.5 436.833,412.5 439.5,412.5C 437.735,413.461 435.735,413.795 433.5,413.5C 433.651,417.314 435.651,418.981 439.5,418.5C 438.713,420.104 437.38,420.771 435.5,420.5C 433.413,419.415 432.08,417.749 431.5,415.5C 431.5,414.5 431.5,413.5 431.5,412.5 Z"/></g>
<g><path style="opacity:1" fill="#654fa5" d="M 439.5,412.5 C 441.5,412.5 443.5,412.5 445.5,412.5C 445.762,413.978 445.429,415.311 444.5,416.5C 443.186,417.313 442.019,418.313 441,419.5C 440.617,418.944 440.117,418.611 439.5,418.5C 435.651,418.981 433.651,417.314 433.5,413.5C 435.735,413.795 437.735,413.461 439.5,412.5 Z"/></g>
<g><path style="opacity:1" fill="#a1a2a7" d="M 322.5,416.5 C 323.239,416.369 323.906,416.536 324.5,417C 323.534,418.678 322.201,419.345 320.5,419C 321.381,418.292 322.047,417.458 322.5,416.5 Z"/></g>
<g><path style="opacity:1" fill="#c9c5f3" d="M 406.5,414.5 C 407.391,415.11 408.391,415.443 409.5,415.5C 409.833,416.167 410.167,416.833 410.5,417.5C 407.67,419.035 406.337,418.035 406.5,414.5 Z"/></g>
<g><path style="opacity:1" fill="#cacbcc" d="M 216.5,411.5 C 217.82,414.899 217.82,418.399 216.5,422C 210.995,422.796 205.662,422.129 200.5,420C 205.788,420.272 211.122,420.439 216.5,420.5C 216.5,417.5 216.5,414.5 216.5,411.5 Z"/></g>
<g><path style="opacity:1" fill="#abacad" d="M 131.5,419.5 C 132.873,419.343 134.207,419.51 135.5,420C 126.25,422.847 116.917,423.181 107.5,421C 111.816,420.879 116.15,421.045 120.5,421.5C 124.447,421.637 128.114,420.97 131.5,419.5 Z"/></g>
<g><path style="opacity:1" fill="#664ba5" d="M 340.5,417.5 C 338.656,418.204 338.156,419.537 339,421.5C 340.916,422.928 343.083,423.928 345.5,424.5C 342.75,425.875 340.084,427.208 337.5,428.5C 337.158,429.338 336.492,429.672 335.5,429.5C 330.125,429.828 324.792,429.495 319.5,428.5C 321.145,427.304 322.811,426.304 324.5,425.5C 327.482,425.037 330.482,424.704 333.5,424.5C 333.584,421.673 334.25,419.006 335.5,416.5C 335.5,415.833 335.833,415.5 336.5,415.5C 338.093,414.652 339.26,413.319 340,411.5C 340.495,413.473 340.662,415.473 340.5,417.5 Z"/></g>
<g><path style="opacity:1" fill="#504991" d="M 344.5,400.5 C 346.153,400.66 347.486,401.326 348.5,402.5C 347.883,402.611 347.383,402.944 347,403.5C 346.184,408.684 346.35,413.684 347.5,418.5C 349.167,418.5 350.833,418.5 352.5,418.5C 349.807,425.03 344.807,428.364 337.5,428.5C 340.084,427.208 342.75,425.875 345.5,424.5C 343.083,423.928 340.916,422.928 339,421.5C 338.156,419.537 338.656,418.204 340.5,417.5C 339,419.509 339.5,420.842 342,421.5C 344.934,420.256 345.101,418.922 342.5,417.5C 342.5,413.167 342.5,408.833 342.5,404.5C 343.167,403.167 343.833,401.833 344.5,400.5 Z"/></g>
<g><path style="opacity:1" fill="#9fa7df" d="M 340.5,417.5 C 341.167,417.5 341.833,417.5 342.5,417.5C 345.101,418.922 344.934,420.256 342,421.5C 339.5,420.842 339,419.509 340.5,417.5 Z"/></g>
<g><path style="opacity:1" fill="#604996" d="M 411.5,413.5 C 413.833,415.167 415.833,417.167 417.5,419.5C 417.204,421.403 416.537,423.07 415.5,424.5C 414.567,421.63 412.9,419.296 410.5,417.5C 410.167,416.833 409.833,416.167 409.5,415.5C 409.81,414.262 410.31,414.262 411,415.5C 411.464,414.906 411.631,414.239 411.5,413.5 Z"/></g>
<g><path style="opacity:1" fill="#7f52b1" d="M 422.5,418.5 C 424.5,419.833 426.167,421.5 427.5,423.5C 426.305,423.322 425.138,422.989 424,422.5C 422.392,424.722 420.225,426.055 417.5,426.5C 416.5,426.167 415.833,425.5 415.5,424.5C 416.537,423.07 417.204,421.403 417.5,419.5C 418.396,420.506 419.062,420.506 419.5,419.5C 420.609,419.443 421.609,419.11 422.5,418.5 Z"/></g>
<g><path style="opacity:1" fill="#c1c0c4" d="M 488.5,411.5 C 492.346,421.492 489.012,424.992 478.5,422C 475.756,421.197 473.089,420.197 470.5,419C 476.364,420.155 482.364,420.655 488.5,420.5C 488.5,417.5 488.5,414.5 488.5,411.5 Z"/></g>
<g><path style="opacity:1" fill="#adaeb0" d="M 501.5,416.5 C 501.56,415.957 501.893,415.624 502.5,415.5C 512.122,421.524 522.455,423.024 533.5,420C 535.329,419.727 536.829,418.893 538,417.5C 538.271,419.807 537.105,420.974 534.5,421C 522.77,424.086 511.77,422.586 501.5,416.5 Z"/></g>
<g><path style="opacity:1" fill="#cccdce" d="M 602.5,410.5 C 603.821,414.233 603.821,418.066 602.5,422C 593.833,422.667 585.167,422.667 576.5,422C 573.363,421.399 570.363,420.399 567.5,419C 579.038,420.358 590.705,420.858 602.5,420.5C 602.5,417.167 602.5,413.833 602.5,410.5 Z"/></g>
<g><path style="opacity:1" fill="#705aa0" d="M 335.5,416.5 C 334.25,419.006 333.584,421.673 333.5,424.5C 330.482,424.704 327.482,425.037 324.5,425.5C 328.432,422.908 332.099,419.908 335.5,416.5 Z"/></g>
<g><path style="opacity:1" fill="#8a79b2" d="M 406.5,414.5 C 406.337,418.035 407.67,419.035 410.5,417.5C 412.9,419.296 414.567,421.63 415.5,424.5C 415.833,425.5 416.5,426.167 417.5,426.5C 418.514,427.674 419.847,428.34 421.5,428.5C 421.5,428.833 421.5,429.167 421.5,429.5C 420.833,429.5 420.167,429.5 419.5,429.5C 412.668,428 408.002,424 405.5,417.5C 405.263,416.209 405.596,415.209 406.5,414.5 Z"/></g>
<g><path style="opacity:1" fill="#6c6794" d="M 352.5,418.5 C 353.5,418.5 354.5,418.5 355.5,418.5C 351.119,426.197 344.452,430.197 335.5,430.5C 335.5,430.167 335.5,429.833 335.5,429.5C 336.492,429.672 337.158,429.338 337.5,428.5C 344.807,428.364 349.807,425.03 352.5,418.5 Z"/></g>
<g><path style="opacity:1" fill="#a363ca" d="M 427.5,423.5 C 428.167,423.5 428.5,423.833 428.5,424.5C 426.992,427.093 424.659,428.426 421.5,428.5C 419.847,428.34 418.514,427.674 417.5,426.5C 420.225,426.055 422.392,424.722 424,422.5C 425.138,422.989 426.305,423.322 427.5,423.5 Z"/></g>
<g><path style="opacity:1" fill="#e1b7e9" d="M 422.5,415.5 C 425.268,418.771 428.268,421.938 431.5,425C 434.022,426.341 436.689,427.174 439.5,427.5C 444.167,428.167 448.833,428.833 453.5,429.5C 445.475,429.39 437.475,429.724 429.5,430.5C 429.795,428.265 429.461,426.265 428.5,424.5C 428.5,423.833 428.167,423.5 427.5,423.5C 426.167,421.5 424.5,419.833 422.5,418.5C 422.5,417.5 422.5,416.5 422.5,415.5 Z"/></g>
<g><path style="opacity:1" fill="#bfa2cf" d="M 317.5,427.5 C 311.91,428.955 306.244,429.955 300.5,430.5C 299.127,430.657 297.793,430.49 296.5,430C 303.301,428.252 310.301,427.418 317.5,427.5 Z"/></g>
<g><path style="opacity:1" fill="#9b81b5" d="M 324.5,425.5 C 322.811,426.304 321.145,427.304 319.5,428.5C 324.792,429.495 330.125,429.828 335.5,429.5C 335.5,429.833 335.5,430.167 335.5,430.5C 323.996,431.541 312.329,431.541 300.5,430.5C 306.244,429.955 311.91,428.955 317.5,427.5C 319.515,426.076 321.848,425.41 324.5,425.5 Z"/></g>
<g><path style="opacity:1" fill="#cc9ce7" d="M 428.5,424.5 C 429.461,426.265 429.795,428.265 429.5,430.5C 426.904,429.735 424.237,429.401 421.5,429.5C 421.5,429.167 421.5,428.833 421.5,428.5C 424.659,428.426 426.992,427.093 428.5,424.5 Z"/></g>
<g><path style="opacity:1" fill="#c8abcf" d="M 439.5,427.5 C 453.916,427.198 468.25,428.031 482.5,430C 480.866,430.494 479.199,430.66 477.5,430.5C 469.684,429.508 461.684,429.174 453.5,429.5C 448.833,428.833 444.167,428.167 439.5,427.5 Z"/></g>
<g><path style="opacity:1" fill="#af92be" d="M 419.5,429.5 C 420.167,429.5 420.833,429.5 421.5,429.5C 424.237,429.401 426.904,429.735 429.5,430.5C 437.475,429.724 445.475,429.39 453.5,429.5C 461.684,429.174 469.684,429.508 477.5,430.5C 459.837,431.229 442.17,431.396 424.5,431C 422.618,430.802 420.952,430.302 419.5,429.5 Z"/></g>
</svg>
